<?xml version="1.0" encoding="utf-8"?>
<!-- Generator: Adobe Illustrator 22.0.0, SVG Export Plug-In . SVG Version: 6.00 Build 0)  -->
<svg version="1.1" id="Layer_1" xmlns="http://www.w3.org/2000/svg" xmlns:xlink="http://www.w3.org/1999/xlink" x="0px" y="0px"
	 width="11px" height="12px" viewBox="0 0 11 12" enable-background="new 0 0 11 12" xml:space="preserve">
<path fill="none" d="M0.6,10.6"/>
<path fill="none" d="M15,4"/>
<g>
	<path d="M9,5.9C9,6,8.8,6.4,8.4,7C8,7.6,7.8,8,7.6,8c0,0-0.1,0-0.2,0C7.2,8.1,7,8,7,7.8C6.9,7.7,6.8,7.6,6.8,7.6
		c0,0-0.1,0.1-0.3,0.2C6.2,7.9,6,8,5.8,8C5.3,8,4.8,7.8,4.5,7.4C4.2,7.1,4.1,6.6,4.1,6.1c0-0.6,0.2-1.1,0.5-1.4
		C4.9,4.3,5.4,4.1,6,4.1c0.3,0,0.5,0.1,0.8,0.2s0.5,0.2,0.5,0.2c0.1,0,0.2-0.1,0.2-0.2c0-0.3-0.2-0.6-0.6-0.9
		C6.5,3.3,6.2,3.2,5.8,3.2C5,3.2,4.4,3.4,3.9,4C3.4,4.6,3.2,5.3,3.2,6c0,0.8,0.2,1.4,0.7,2C4.4,8.6,5,8.8,5.8,8.8
		c0.1,0,0.2,0,0.2,0.1v1C6,10,5.9,10,5.8,10c-1.1,0-2-0.4-2.8-1.2C2.4,8,2,7.1,2,6C2,5,2.4,4,3.1,3.2C3.8,2.4,4.7,2,5.8,2
		s1.9,0.4,2.5,1.2C8.7,3.9,9,4.8,9,5.9z M7.2,6c0-0.2-0.1-0.4-0.2-0.5C6.8,5.4,6.7,5.3,6.4,5.3C6.2,5.3,6,5.4,5.9,5.5
		C5.8,5.7,5.7,5.8,5.7,6.1c0,0.2,0.1,0.4,0.2,0.5C6,6.7,6.1,6.8,6.3,6.8c0.3,0,0.5-0.1,0.6-0.2C7.1,6.5,7.2,6.3,7.2,6z"/>
</g>
</svg>
