<?xml version="1.0" encoding="utf-8"?>
<!-- Generator: Adobe Illustrator 22.0.0, SVG Export Plug-In . SVG Version: 6.00 Build 0)  -->
<svg version="1.1" id="Layer_1" xmlns="http://www.w3.org/2000/svg" xmlns:xlink="http://www.w3.org/1999/xlink" x="0px" y="0px"
	 width="1730px" height="250px" viewBox="0 0 1730 250" style="enable-background:new 0 0 1730 250;" xml:space="preserve">
<style type="text/css">
	.st0{fill:#444444;}
</style>
<path class="st0" d="M770,199c1.3-2.7-4-45.4-3.5-67.3c-0.6,1.3-1.2,2.5-1.8,3.4c1.6-7,1.8-13.7,0.6-19.9c-0.6,2.8-2,5.8-4,8.8
	c1.2-6.1,1.5-11.2,0.7-15.4c0,0.1-0.1-0.2-0.3-0.9c-0.5-2.2-0.8-1.7-1,1.3c-0.3,4.5-0.9,7.3-1.6,8.4v-8.5l1.3-8.5l-1.8,5.1
	c0.2-2.6,0.7-5.7,1.6-9.3c0.1-0.6,0.3-1.3,0.6-1.9c-0.2-0.1-0.3-0.1-0.5-0.3c-0.1,0.5-0.1,0.8-0.2,1.1c-0.1-0.5-0.1-1-0.2-1.5
	c-0.8-0.8-0.8-1.8-0.2-3.1c0.1-1.4,0.2-2.5,0.5-3.3c-1.4,0.3-1.8,3.1-1.2,8.3c0.6,5.2-0.4,9.7-3.2,13.5c0.8-2.4,1.2-5.2,1.3-8.3
	c-0.5,4.4-3.1,9.9-7.8,16.6l3.4-12.9c-3.3,4.5-5.2,11.6-5.9,21.4c-0.7-4.8-0.9-10.8-0.6-17.8c0,0.1,0,0.3-0.1,0.4
	c-0.3,2.3-0.7,4.6-1.1,6.8c-0.8-1.8-1-4.9-0.7-9.2c0.2-4.4,1.5-7.6,3.8-9.7l-3.5,3.1c0.7-3,3.4-6.4,8-10.2c4.5-3.7,8.7-5.9,12.6-6.7
	c0.9-2.2,1.5-4.3,1.7-6.4c-1.2,0.3-2.8-0.3-4.6-1.9c2.4,0.9,3.7,0.7,4.1-0.6c-0.9-0.3-1.8-0.6-2.7-0.8c-5.9-1.4-12,0.6-18.4,6.1
	c2.9-4.7,6-7.7,9.4-9.2c-2.5-1.3-6.3,1.5-11.5,8.4c-5.2,6.9-12.1,10.9-20.8,12c4.1-1.9,8-4.7,11.7-8.3c-5.9,4.5-16.3,7.9-31.4,10.1
	L722.9,81c-10.2,1.4-21.6,7.4-34,18.1c4.5-6.6,11.1-13.8,19.8-21.7c-0.5,0.3-0.7,0.5-0.6,0.4c-3.3,2.3-6.5,4.5-9.7,6.6
	c0.9-3.1,4.2-7,9.7-11.9c5.5-4.8,11.3-7.1,17.3-6.8l-9-0.4c3.5-2.1,9.7-3,18.4-2.8c-0.6-0.1-1.1-0.1-1.5-0.3c5.6-0.3,9.6-1.6,12-3.7
	c-6.3,1.3-12.2-0.2-17.6-4.6c4.6,2.3,9.1,3.2,13.4,2.6c-0.9-0.8-3.8-1.8-8.7-3.2c-4.9-1.5-8.2-4.2-9.7-8.2c1.9,3.2,5.3,5,10.4,5.5
	c-3.4-3-5.1-6.5-5.3-10.6c2,4.1,5.1,7.3,9.4,9.6c-2.2-2.2-3.2-4.5-3-6.9c0.9,2,2.3,3.8,4.3,5.3c-1.3-2.4-1.9-4.7-1.8-6.9
	c1.7,4.4,4.9,7.9,9.4,10.4c0.5,0.1,1,0.2,1.3,0.3c-0.8-1.2-1.3-2.9-1.4-5.3c3,3.8,6.5,5.7,10.6,5.7c-0.5-0.3-0.9-0.7-1.4-1
	c-0.8-0.4-1.3-0.9-1.7-1.4c-1.9-1.5-3.3-3-4.4-4.4c2.9,2.2,6.2,3.8,9.9,4.9c-5.2-2.3-11.9-8.6-19.9-18.8l15.5,10
	c-5.4-7-14-12.8-25.7-17.2c5.8,0.3,12.9,1.9,21.4,4.8c-0.1-0.1-0.1-0.1-0.3-0.2c-0.1,0-0.2,0-0.3-0.1c-2.8-1.4-5.5-2.8-8.2-4.2
	c2.2-0.8,6-0.2,11.2,1.7c5.2,1.9,9.1,5.1,11.6,9.8l-3.7-7c3.5,2.2,7.6,7.9,12.2,17.1c0.4-12,0.8-18.6,1-19.7
	c0.9,2.9,1.5,5.8,1.9,8.7c-0.6-6.6,0.5-11.6,3.5-14.9c3.5-4,6.8-6,9.9-6.1c-1.3,2.8-2.7,5.5-4.3,8c-0.1,0.1-0.2,0.2-0.3,0.4
	c0.1,0,6.2-4.1,18.3-12.4c-0.1-0.1-2.1,3.5-5.8,10.7c-4.1,8-6.4,14-7.1,18.1c3.1-4.4,6.2-9.7,9.2-16c0.2,5.1-2.5,13.4-8.2,24.9
	c2.4-2,6.3-4.8,11.7-8.3c10.9-7.2,19.6-10.5,26.1-9.9l-8.6,5.1c5.8-3.4,13.1-4,22.1-1.6s15,5,18.1,7.8c-4.8-0.6-9.6-1.4-14.5-2.2
	c-0.2,0-0.5,0-0.9-0.1c14.2,4.1,26,8.5,35.1,13.2c-20.1-5.1-35.7-5.8-46.8-2l28.1,1.6c-13,4.2-24.1,6.1-33.4,5.8
	c0.9,0.5,1.6,0.9,2.1,1.3c3.8,0.8,7.3,1.1,10.3,1.1c-2.2,0.7-4.9,1.2-8.2,1.4c4.4,1.6,8,3.2,10.9,4.6c-12.8-3.2-22.7-3.6-29.8-1.2
	l17.9,1c-10.6,3.4-18.7,4.5-24.5,3.3c4,1.3,7.7,1.9,11.2,1.8c-6.1,2-12.4,1.5-18.7-1.5s-10-3.7-11-2c2.7-0.1,6.1,1,10,3.2
	c-3.1-0.8-6.2-1-9.2-0.4c1,0.7,1.9,1.9,2.5,3.7c2.2-1.3,4.6-1.8,7.2-1.7c5.1,0.3,8.7,1.7,10.9,4c1.2,1.2,2.4,3.9,3.8,8
	c0.6,0.3,1.6,1.2,2.9,2.5c1.3,1.3,2.6,2.4,3.9,3.3c-1.1,0.8-2.8,0.1-5.2-2.1c0.6,1.2,1.2,2.3,2,3.2c2.5,2.8,5.8,4.2,9.9,4.4
	c-0.7,0.6-1.5,1.1-2.4,1.6c2.7,1.7,5,3.5,6.8,5.1c2.1,0,4.2-0.3,6.3-1c-1.2,1.1-2.7,2-4.5,2.8c0.5,0.6,1,1.2,1.4,1.7
	c1-0.1,2.1-0.3,3.1-0.6c-0.6,0.6-1.4,1.2-2.4,1.7c0.8,1.4,1.2,2.6,1.2,3.6c2.5,0.4,5,0.3,7.6-0.3c-4,3.2-8.4,4.2-13.3,3
	c3.4,5.1,7.3,7.3,11.5,6.6c-4.8,1.7-9.3,0.5-13.6-3.7c-4.3-4.2-7.1-6.4-8.4-6.7c2,5.1,5.5,9.2,10.5,12.3
	c-7.4-2.2-12.4-7.2-14.9-15.2c-0.6,4.3,0.6,9.7,3.6,16.1c-4.7-5.3-7.6-11.9-8.5-19.8c-0.4,2.7-0.4,5.3,0.1,7.8
	c-1.8-3.2-2.9-7.1-3.2-11.8c-0.4-4.7-1.9-7.8-4.6-9.4c-0.1,4,0.8,6.3,2.6,7.1c-2.2-0.8-3.7-2.3-4.5-4.5c-0.6-1.7-1.2-1.9-1.6-0.6
	c-0.1,2.7,0.7,4.8,2.3,6.5c-2.3-1-3.7-2.6-4.4-4.9c-0.3-0.9-1-1.1-2.1-0.6c-0.5,0.2-2.2,1.1-5.3,2.9c-1.7,1-2.1,2.3-1.2,3.9
	c0.5,0.8,1.1,1.5,1.8,2.2c-0.6-0.2-1.3-0.4-2.1-0.8c0.5,1.3,0.8,2.6,1,3.9c-0.1,0.5-0.1,0.8-0.1,0.9s0.1,0,0.2-0.2
	c0.1,0.3,0.1,0.5,0.2,0.7c-0.2,0.1-0.4,0.2-0.4,0.3c-0.1,0.3-0.1,0.5,0,0.3c-1.5,10.2-2.9,16.8-4.4,19.6c1.5-14.7,2.1-23,1.8-24.8
	c-0.2-1.7-0.8,1.9-1.9,10.7c-1.1,9-1.6,15.7-1.5,20.3c-1.2-9.4-1.6-16.8-1.2-22.2c-3.1,11-3.7,21-1.8,29.8
	c-2.7-4.4-3.8-11.6-3.4-21.5c-0.3,1.2-0.6,2.6-0.9,4.4c-0.5,23.8,0.4,41.4,2.7,52.8c1.7,8.8,3.7,16.3,5.9,22.6 M740.7,62.9
	c1.9,0.2,3.6,0.3,5.1,0.5c1.7-0.6,3.2-1.6,4.5-2.8c-3.2,1.4-6.8,2.1-10.7,2.2C740.1,62.9,740.5,62.9,740.7,62.9z M746.5,63.5
	c7.4,0.9,13.8,2.7,19.2,5.5c-0.5-2-1.1-2.9-1.9-2.7c-1.9,0.3-3.7-0.1-5.5-1.2c1.9,0.5,3.6,0.1,5.3-1c0.5-0.8,0.1-1.1-1.3-0.9
	c-1.9,0.3-3.6-0.2-5.2-1.4c1.5,1,3.4,0.8,5.8-0.9c-2.4-1.3-5.2-1.2-8.4,0.3C752,62.5,749.4,63.3,746.5,63.5z M764,55.2
	c1.2,1.9,2.6,4.7,4.3,8.6c0.8,1.9,1.4,3.7,1.8,5.7c0.6-3,1.1-5.9,1.5-8.9c-2-1.5-3.9-2.6-5.7-3.3c2.1,0.1,4.1,0.4,5.9,1
	c0.1-0.6,0.2-1.1,0.2-1.3c-1.7-0.8-3.9-1.3-6.6-1.6C765,55.4,764.5,55.3,764,55.2z M767.5,89.4c0.6,0.2,1.2,0.6,1.7,1
	c0.2,0.2,0.5,0.3,0.8,0.5c-0.1-0.3-0.2-0.7-0.2-1c0-0.8-0.1-2.4-0.4-4.9C768.9,86.6,768.2,88.1,767.5,89.4z M772.9,82.3
	c0.3-1.7,0.8-3.4,1.3-4.9c-0.9-0.6-1.8-1.2-2.8-1.7c-0.5,2.2-0.8,4.3-0.7,6.2C771.4,82,772.2,82.1,772.9,82.3z M772.3,72.6
	c1,0.6,2,1.2,2.9,1.9c0.4-2.3,1.1-4.6,2.2-6.9c-0.3-0.7-0.7-1.4-1.1-2.1c-1.3,1.4-2.2,2.6-2.7,3.7C773,70.4,772.6,71.5,772.3,72.6z
	 M774.8,83c0.2,0.1,0.3,0.2,0.3,0.2c-0.1-0.3-0.1-0.6-0.1-1C774.9,82.5,774.8,82.8,774.8,83z M783.5,57c-2,0.2-3.7,0.6-5.1,1.2
	c0.2,0.8,0.5,1.5,0.7,2.3l2.6-0.7C782.4,58.7,783,57.7,783.5,57z M779.1,84.1c0.1-0.2,0.1-0.5,0.2-0.7c-0.2-0.4-0.4-0.8-0.6-1.1
	C778.7,82.8,778.9,83.4,779.1,84.1z M779.4,78.4c0.2,0.2,0.3,0.3,0.4,0.5c0-0.5,0-0.9-0.1-1.4L779.4,78.4z M779.8,62.5
	c0.1,0.2,0.1,0.4,0.1,0.5c0.1,0,0.3-0.3,0.7-1C780.3,62.1,780,62.3,779.8,62.5z M780.3,87.4c0.2,0.3,0.3,0.6,0.4,0.9
	c-0.1-0.5-0.1-0.9-0.3-1.3C780.4,87.1,780.3,87.3,780.3,87.4z M786.6,70.9c-1.1,0.4-2,1-2.8,1.7c-0.8,0.8-1.5,1.5-2.1,2.2
	c0.3,2.5,0.3,4.8,0,7c0.6,1,1,2,1.4,3c2-4.6,4.5-7.9,7.3-9.9C789.7,72.7,788.4,71.4,786.6,70.9z M796.5,82.9
	c-2.3-1.2-3.9-2.9-4.9-5.1c-2.8,2.3-5.1,6.1-6.8,11.5c0.7,0.6,1,1.5,1,2.7c3.4-2.6,7.2-4.6,11.4-5.8c1-0.3,2.1-0.7,3.1-1
	C799.2,84.3,797.9,83.6,796.5,82.9z M799,75.3c-2.3-0.1-4.4,0.4-6.4,1.7c1,2.4,2.6,4.2,4.7,5.4c1.5,0.9,2.7,1.7,3.8,2.5
	c4.3-1.2,7.5-1.6,9.6-1.4C808.8,78.3,804.9,75.6,799,75.3z M801.6,54c-4.4-1.1-7.1-0.9-7.9,0.5c1.3-0.1,3.1,0.2,5.3,0.8L801.6,54z
	 M823.1,98.1c-0.8,0.3-1.4,0.5-1.9,0.5c0.2,0.3,0.6,0.8,1,1.2c2.4,1.3,4.8,2.2,7.3,2.4C827.7,100.9,825.5,99.5,823.1,98.1
	L823.1,98.1z M834.6,107.4c-1.7,0.7-3.5,0.9-5.3,0.6c2.3,1.3,4.6,2.2,7.1,2.6C836.1,109.7,835.5,108.6,834.6,107.4z M832.2,104.7
	c-0.8,0.2-1.5,0.4-2.2,0.5c1.2,0.4,2.3,0.6,3.5,0.7C833.1,105.5,832.6,105.1,832.2,104.7z M739.9,239.8
	c-9.3-9.4-14.3-12.7-15.6-12.6c0.1-0.6,0-1.2-0.1-2c3.1-4.2,6.2-6.7,9.1-7.5c1.5-0.3,3.5-0.7,6.2-1c3.3-0.3,5.3-0.6,6.3-0.8
	c4.7-0.9,7.4-2.7,8.4-5.6c0.2-0.5,0.3-1.1,0.5-1.8c0.2,0.2,0.5,0.3,0.7,0.4c1.2,0.6,2.3,0.7,3.3,0.3c0.5-0.2,1.1-0.7,1.7-1.4
	c0.2-0.2,0.7-0.6,1.5-1c0.6-0.3,0.8-0.6,0.8-1c-0.4-1.8-0.6-2.8-0.6-3.1c0-0.6,0.5-1.2,1.6-1.7c1.3-0.5,2.1-1.1,2.4-1.7l2.8-4.5
	c0.5-0.6,0.8-1.2,0.9-1.8c0-0.1,0-0.4,0.1-1c0.1-0.3,0.1-0.7,0.2-1c0.2-0.8,0.6-1.1,1.4-1.1c0.7-0.1,1.6,0.3,2.6,1
	c0.9,0.6,1.9,0.5,3.1-0.3c0.9-0.6,1.6-1.5,2.1-2.4c0.5-0.8,1.3-1.7,2.5-2.7c1.3-1.1,2.1-1.5,2.6-1c2.5,2.4,3.7,3.6,3.6,3.5
	c0.3,0.3,1.3,1.5,2.8,3.5c0.2,0.2,0.9,0.5,2.2,0.7c1.3,0.3,2.1,0.7,2.4,1.1c0.9,1.4,1.5,3,1.9,4.7c0.1,0.7,0.8,1.1,2,1.2
	c0.9,0.1,1.7,0.1,2.3-0.2c0.7-0.3,1.7,0.3,2.9,1.8c0.1,0.2,0.3,0.6,0.6,1.1c0.3,0.7,0.5,1.2,0.6,1.4c0.6,1,1,1,1.4-0.1
	c0.5-1.3,1.4-1.3,2.9-0.1c0.6-0.4,1.2-0.6,1.7-0.6c0.9,0,2.3-0.8,4.3-2.3c1.8-1.3,3.3-2.6,4.4-3.8c0.2-0.2,0.8-1,1.8-2.4
	c0.6-0.8,1.4-1.5,2.4-2.1c1.8-1,2.8-1.6,3-1.7c0.8-0.3,1.6-0.3,2.4-0.1s4.4,1.7,10.9,4.5c5.4,2.3,8.7,4,9.9,4.9
	c0.4,0.3,1.1,0.9,2,1.7c0.8,0.8,1.5,1.3,2.1,1.7c1.7,1,3.7,1.2,6.2,0.6c1.2-0.3,2.2-0.8,2.9-1.2l0.6-0.6c0.3-0.2,0.4-0.4,0.4-0.4
	c0.3-0.3,0.8-0.4,1.3-0.3c0.7,0.1,1.8,0.4,3.4,1c5,1.8,8.9,3.8,11.6,6.1c6.1,5.1,9.1,7.5,9,7.3c0.8,1.5,1.2,2.6,1.2,3.6
	c-0.1,1.1-0.7,1.7-1.9,1.8c-0.2,0.1-1.6,0.6-4,1.7c-1.4,8.1-3.3,14.4-4.7,18.8H742.1L739.9,239.8z"/>
<path class="st0" d="M828.7,239.5c-9.3-9.4-13.7-12.4-15-12.3c0.1-0.6,0-1.2-0.1-2c3.1-4.2,6.2-6.7,9.1-7.5c1.5-0.3,3.5-0.7,6.2-1
	c3.3-0.3,5.3-0.6,6.3-0.8c4.7-0.9,7.4-2.7,8.4-5.6c0.2-0.5,0.3-1.1,0.5-1.8c0.2,0.2,0.5,0.3,0.7,0.4c1.2,0.6,2.3,0.7,3.3,0.3
	c0.5-0.2,1.1-0.7,1.7-1.4c0.2-0.2,0.7-0.6,1.5-1c0.6-0.3,0.8-0.6,0.8-1c-0.4-1.8-0.6-2.8-0.6-3.1c0-0.6,0.5-1.2,1.6-1.7
	c1.3-0.5,2.1-1.1,2.4-1.7l2.8-4.5c0.5-0.6,0.8-1.2,0.9-1.8c0-0.1,0-0.4,0.1-1c0.1-0.3,0.1-0.7,0.2-1c0.2-0.8,0.6-1.1,1.4-1.1
	c0.7-0.1,1.6,0.3,2.6,1c0.9,0.6,1.9,0.5,3.1-0.3c0.9-0.6,1.6-1.5,2.1-2.4c0.5-0.8,1.3-1.7,2.5-2.7c1.3-1.1,2.1-1.5,2.6-1
	c2.5,2.4,3.7,3.6,3.6,3.5c0.3,0.3,1.3,1.5,2.8,3.5c0.2,0.2,0.9,0.5,2.2,0.7c1.3,0.3,2.1,0.7,2.4,1.1c0.9,1.4,1.5,3,1.9,4.7
	c0.1,0.7,0.8,1.1,2,1.2c0.9,0.1,1.7,0.1,2.3-0.2c0.7-0.3,1.7,0.3,2.9,1.8c0.1,0.2,0.3,0.6,0.6,1.1c0.3,0.7,0.5,1.2,0.6,1.4
	c0.6,1,1,1,1.4-0.1c0.5-1.3,1.4-1.3,2.9-0.1c0.6-0.4,1.2-0.6,1.7-0.6c0.9,0,2.3-0.8,4.3-2.3c1.8-1.3,3.3-2.6,4.4-3.8
	c0.2-0.2,0.8-1,1.8-2.4c0.6-0.8,1.4-1.5,2.4-2.1c1.8-1,2.8-1.6,3-1.7c0.8-0.3,1.6-0.3,2.4-0.1s4.4,1.7,10.9,4.5
	c5.4,2.3,8.7,4,9.9,4.9c0.4,0.3,1.1,0.9,2,1.7c0.8,0.8,1.5,1.3,2.1,1.7c1.7,1,3.7,1.2,6.2,0.6c1.2-0.3,2.2-0.8,2.9-1.2l0.6-0.6
	c0.3-0.2,0.4-0.4,0.4-0.4c0.3-0.3,0.8-0.4,1.3-0.3c0.7,0.1,1.8,0.4,3.4,1c5,1.8,8.9,3.8,11.6,6.1c6.1,5.1,9.1,7.5,9,7.3
	c0.8,1.5,1.2,2.6,1.2,3.6c-0.1,1.1-0.7,1.7-1.9,1.8c-0.2,0.1-1.6,0.6-4,1.7c-1.4,8.1-2.5,14.4-3.9,18.8H831.1L828.7,239.5z
	 M917.7,180.7L886,187L837.8,81.4l25.3-5.4l33.2,79.3L893.7,71l29.6-4.8L917.7,180.7z M927.3,103.9l1-0.3l3.1,32h0.4l3.1,32l0.4-0.1
	l4.6,43.2l-3.6,0.6l-4.3-39.8l-66.6,11.3l4.3,39.5l-3.6,0.6l-4.5-43h0.2l-3.1-32h0.2l-3.1-32h0.1L853,85.6l71.3-12.1L927.3,103.9z
	 M859.4,115.4l64.4-11l-2.6-26.9l-64.4,11L859.4,115.4z M862.4,147.4l65.5-11.2l-2.7-28.5l-65.5,11.1L862.4,147.4z M865.4,179.4
	l66-11.2l-2.7-28.5l-66,11.2L865.4,179.4z"/>
<path class="st0" d="M910.2,240.3c-7.2-1.1-8.3-1.8-13.1-3.8c-2.7-1.1-4.3-6.3-4.7-15.7c-0.5-0.9,0.4-1.4,2.7-1.6
	c2.2-0.1,3.7-0.4,4.7-0.8c0.8-0.3,1.6-1,2.4-1.9c2.9-3.3,5.9-6,9-8c4.7-3.1,7.5-4.5,8.5-4.4c0.1,0,0.7,0.3,1.7,0.8
	c0.9,0.5,1.9,0.8,3.2,0.9c2.5,0.2,4.5-0.2,6.1-1.2c2-1.2,3.3-1.9,4.1-2c1.4-0.2,2.7-1.2,3.9-3c1.3-1.8,2.3-2.8,3.1-3
	c2.7-0.5,5.4-1.6,8.1-3.2c3.6-2.2,6.5-3.2,8.6-3.2c0.9,0,1.9,0.7,3,2.1c1.3,1.7,2.5,2.8,3.5,3.3c2.4,1.2,3.8,1.9,4,2.2
	c1,0.8,1.2,2.1,0.8,3.7c-0.5,1.8-0.1,3.5,1.1,5.1c1.2,1.4,2.8,2.4,4.8,3c1.1,0.3,3.6,0,7.5-1c3.5-0.8,5.9-0.8,7.1-0.1
	c1-1.2,1.6-1.9,1.7-2.4c0.5-1.7,1.6-3.4,3.5-5l4.4-3.6c0.4-0.2,1.4-0.3,3-0.2c1.5,0.1,2.5,0,2.9-0.3c0.2-0.2,0.7-0.1,1.4,0.3
	c0.8,0.3,1.3,0.8,1.7,1.3c0.3,0.5,0.5,0.9,0.3,1.2c-0.2,0.6-0.3,1.2-0.3,1.6c0,1.6,0.8,3,2.3,4.4l1.4-0.9c0.6,0.2,1,0.8,1.2,1.7
	c0.1,0.5,0,0.8-0.2,1.1c0.1,0.1,1.3,0.6,3.6,1.6c2,0.9,3.1,1.7,3.1,2.4c0,0.9,0.8,2,2.4,3.3c0.5,0.4,1.1,0.9,2,1.6
	c0.9,0.6,1.4,1,1.7,1.2c0.2,0.2,0.7,0.6,1.5,1.1c0.6,0.5,1.2,0.8,1.6,1.1c3,0.5,4.9,5.8,5.7,16c0.8,1.9,0.9,3.9,0.5,5.3h-116
	L910.2,240.3z M968.9,70.9l1.8,88.7l48-1.3l1.7,24.6l-78.2,0.5l-1-112.5C941.2,70.9,968.9,70.9,968.9,70.9z M1013.3,114.1h1
	l-0.9,30.7h0.4l-0.9,30.7h0.4l-0.8,41.6l-3.1-0.1l0.6-38.3l-59-1.3l-0.6,38l-3.1-0.1L948,174h0.2l0.8-30.7h0.1l0.9-30.7h0.1
	l0.8-29.1l63.3,1.5L1013.3,114.1L1013.3,114.1z M951.3,174.1l58.5,1.3l0.8-27.4l-58.6-1.4L951.3,174.1L951.3,174.1z M952.2,143.4
	l58.2,1.3l0.7-27.4l-58.2-1.3L952.2,143.4L952.2,143.4z M953,112.7l57.2,1.3l0.7-25.9l-57.2-1.3L953,112.7z"/>
<path class="st0" d="M1017.2,238.4c-1.8-3.3-2.8-5.2-5.8-11.3c-3.7-1-5.7-1.7-6-2s-0.5-0.7-0.4-1.2c0.1-0.4,0.3-1.2,0.7-2.4
	c1.3-3.7,3.3-7.2,5.8-10.5c2.9-3.9,5.5-6.8,7.7-8.7c0.6-0.5,1.7-0.8,3.4-0.8c1.7,0,2.9-0.2,3.4-0.6c1.2-0.9,4.3-0.7,9.4,0.5
	c0.1-0.3,0.2-0.6,0.4-1c0.3-0.6,0.5-1.1,0.7-1.6c0.2-0.7,0.8-1.5,1.6-2.4c0.7-0.8,1.1-1.5,1.2-2c0.3-1.7,0.8-2.4,1.7-2.3
	c0.8,0.2,2.2-0.3,4.3-1.4c0.8-0.4,1.3-0.7,1.7-0.8c0.6-0.1,1,0.1,1.2,0.7c0.2,0.5,1,1.1,2.4,2c1.7,0.9,2.6,1.5,2.7,1.6l0.7,0.7
	c0.3,0.5,0.6,0.8,0.9,1c0.8,0.7,1.5,0.8,2.1,0.3c0.9-0.8,1.5-1.1,1.7-1.1c0.5,0,1.6,0.6,3.1,1.8s2.4,1.8,2.5,1.7
	c0.1,0,0.2-0.1,0.3-0.3c0.2-0.3,0.3-0.6,0.5-0.8c0.4-0.5,0.8-0.6,1.3-0.3c0.1,0.1,0.4,0.5,1.1,1.4c0.3,0.4,0.7,0.7,1.1,0.8
	c0.6,0.2,1.1,0.3,1.3,0.5c0.1,0.1,0.3,0.2,0.4,0.4c2,0.1,3.9-0.1,5.5-0.7c1.7-0.6,2.8-1.5,3.3-2.6c0.5-1.3,1.2-2.4,1.9-3.2
	c0.9-0.9,1.9-1.4,3.1-1.4c1.2,0.1,2.8-0.1,4.9-0.3c2.1-0.3,3.4-0.7,4-1c0.5-0.3,2.3-0.1,5.5,0.7c3,0.7,4.8,1.3,5.6,1.7
	c1.9,1.2,3.8,2,5.7,2.5c1.4,0.3,2.8,0.1,4.4-0.6c1.2-0.6,2.2-1.4,3.1-2.5c1.9-2.4,2.9-3.7,3.1-3.9c1.5-1.5,2.6-1.8,3.3-0.9
	c1.5,1.9,2.7,3.2,3.7,4.1c1.7,1.5,3.1,2,4.4,1.5c1.4-0.6,2.4-0.9,3.1-0.7c0.6,0.1,1.4,0.8,2.3,2c2.1,2.8,4.2,4.4,6.5,4.7
	c1.3,0.2,2.2,0.3,2.5,0.5c0.6,0.3,1.1,1.2,1.6,2.4c0.4,1,0.9,1.9,1.6,2.7c0.9,1,1.5,1.8,1.7,2.2c2.4,3.7,0.4,5.6-6,5.8
	c2.4,13.1,1.5,22.6-2.5,28l-123.3,0L1017.2,238.4z M1105.9,94.5l4.5,71.7l-24.8,20.5l-53.8,1.8l-5.7-111.7l51.3-4.3L1105.9,94.5z
	 M1099.6,103.5l1-0.1l0.7,28.6h0.3l0.8,28.6h0.3l1.4,38.6l-3.2,0.3l-1.3-35.6l-59.8,5.8l1.3,35.4l-3.2,0.3l-1.4-38.5h0.2l-0.7-28.6
	l0.1-0.1l-0.7-28.6h0.1l-0.7-27.1l64.2-6.3L1099.6,103.5L1099.6,103.5z M1038.6,109.5l58-5.7l-0.7-24.1l-58,5.7L1038.6,109.5z
	 M1039.3,138.1l58.9-5.8l-0.7-25.5l-58.9,5.8L1039.3,138.1z M1039.9,166.7l59.4-5.8l-0.6-25.5l-59.4,5.8L1039.9,166.7z
	 M1057.1,162.5l16.1-0.6l7.3-7.7l-2.7-48.8l-8.7-4.9l-16.3,0.5L1057.1,162.5L1057.1,162.5z"/>
<path class="st0" d="M1109,241.3c0,0-11-25.2-12.4-25.9c-2.1-1-1-2.4,3.5-4.1c4.7-1.8,10.9-5.1,18.7-9.9c7.2-4.5,11.3-6.9,12.4-7.2
	s5.3,1,12.5,4c3.1-4,5.5-5.8,7.2-5.5c2.3,0.5,3.7,0.3,4.4-0.6c2-3,5-3.3,8.8-0.9c4.9-3.7,8.7-4.9,11.3-3.6c2.4,1.1,6,3.3,11,6.5
	c5.8,3.7,9.2,5.9,10.2,6.5s2.6,0.7,4.7,0.3c0.3-0.1,1.2-0.3,2.9-0.7c1.2-0.3,2.3-0.5,3.1-0.7c2.6-0.3,4.9-0.2,6.9,0.5
	c2.6,1,5.1,3,7.3,5.9c2,2.7,5,5.2,9.1,7.5c3.9,2.2,7.3,3.5,10.2,3.7c1.3,0.2,1.7,0.8,1,1.8c-0.6,1-1.9,2.3-4,3.7
	c-3.8,2.6-7.1,8.8-11.2,18.7L1109,241.3z M1171.3,63.5l21.4,19.4l-0.5,29.1l-9.6,5.5l10.2,7.1l-0.6,33l-19.2,19.8h-53.1l2.3-114.3
	C1122.2,63.1,1171.3,63.5,1171.3,63.5z M1186.6,93.2l-1,26.2h0.1l-1,27.6h0.1l-1,27.6h0.1l-2,44.2l-2.7-0.1l1.9-41.2l-50.7-2.3
	l-1.9,41.4l-2.7-0.1l2.1-44.5h0.3l1-27.6h0.3l1-27.6l0.9,0.1l1-26.2L1186.6,93.2L1186.6,93.2z M1181.1,174.4l0.9-24.6l-50.2-2.3
	l-1,24.7L1181.1,174.4L1181.1,174.4z M1182.1,146.9l0.9-24.7l-49.9-2.2l-1,24.6L1182.1,146.9L1182.1,146.9z M1183.1,119.2L1184,96
	l-49.1-2.2L1134,117L1183.1,119.2z M1157.5,155.2l7.2-6.7l0.4-12.2l-6.6-6.2h-14.3l-1,24.7L1157.5,155.2z M1145.9,108.7l13.6-0.4
	l6.4-6.4v-9.8l-6.3-6.5h-14C1145.6,85.6,1145.9,108.7,1145.9,108.7z"/>
<path class="st0" d="M1223.8,240.3c-10.9-3.1-17-8.8-20.2-18.9c-8-0.1-10.6-2-7.6-5.8c0.3-0.4,1-1.1,2.3-2.2
	c0.8-0.8,1.5-1.7,1.9-2.7c0.6-1.3,1.2-2.1,2-2.4c0.4-0.2,1.5-0.3,3.2-0.5c2.7-0.3,5.4-1.9,8-4.7c1.1-1.2,2.1-1.9,2.9-2
	c0.8-0.2,2.1,0.1,3.8,0.7c1.5,0.5,3.3,0,5.5-1.5c1.2-0.9,2.7-2.2,4.5-4.1c0.9-0.9,2.3-0.6,4.2,0.9c0.2,0.2,1.5,1.5,3.8,3.9
	c1,1.1,2.3,1.9,3.8,2.5c1.9,0.8,3.7,1,5.5,0.6c2.3-0.5,4.7-1.4,7.2-2.5c0.9-0.5,3.2-1,6.9-1.7c4-0.8,6.3-1,7-0.7
	c0.7,0.3,2.4,0.7,5.1,1c2.6,0.3,4.6,0.4,6.1,0.3c1.3,0,2.6,0.5,3.7,1.4c1,0.8,1.8,1.9,2.4,3.2c0.6,1.2,1.9,2,4.1,2.6
	c2.1,0.6,4.4,0.8,7.1,0.7c0.2-0.2,0.3-0.4,0.5-0.4c0.3-0.2,0.8-0.3,1.7-0.5c0.5-0.1,1-0.4,1.4-0.8c0.8-0.9,1.3-1.3,1.4-1.4
	c0.5-0.3,1.1-0.3,1.7,0.3c0.2,0.2,0.4,0.5,0.6,0.8c0.1,0.2,0.2,0.3,0.3,0.3c0.2,0.1,1.3-0.5,3.2-1.7s3.2-1.8,3.9-1.8
	c0.2,0,0.8,0.4,2,1.1c0.8,0.5,1.7,0.3,2.6-0.3c0.3-0.2,0.7-0.5,1.1-1c0.4-0.4,0.7-0.6,0.9-0.7c0.1-0.1,1.2-0.6,3.4-1.6
	c1.8-0.9,2.8-1.5,3.1-2c0.2-0.6,0.8-0.8,1.6-0.7c0.4,0.1,1.1,0.4,2.1,0.8c2.6,1.1,4.3,1.6,5.3,1.4c1-0.2,1.8,0.6,2.2,2.3
	c0.1,0.5,0.6,1.2,1.5,2c1,0.9,1.6,1.7,1.9,2.4c0.2,0.5,0.6,1,1,1.6c0.2,0.4,0.4,0.8,0.4,1c6.5-1.2,10.4-1.4,11.9-0.5
	c0.7,0.4,2.1,0.6,4.3,0.6c2.2,0,3.6,0.3,4.3,0.8c2.8,1.9,6,4.8,9.7,8.7c3.2,3.3,5.6,6.8,7.2,10.5c0.5,1.2,0.8,1.9,1,2.4
	c0.1,0.5-0.1,0.9-0.6,1.2c-0.4,0.3-2.9,1-7.5,2c-1.3,2.2-3.5,4.2-4.6,6.1H1224L1223.8,240.3z M1322.6,80.4l0.3,34.6l-43.2,39.2
	l42.2,0.4l0.7,28.2h-78.8l0.3-27.2l54.8-51.8l0.2-16.3l-4.4-4.9l-21.2,0.6l-4.8,5.3l-0.3,13.3l-25.4,0.3v-20l21.3-23.5l40.8-0.2
	L1322.6,80.4L1322.6,80.4z M1312.9,106.6l1,0.1l-1.8,36.8h0.3l-1.7,36.7h0.3l-2.1,49.7l-3,0.1l1.9-45.8l-55.4,1l-1.8,45.5l-3,0.3
	l2-49h0.2l1.7-37.5h0.2l1.7-37.4h0.1l1.7-34.5l59.4-1L1312.9,106.6L1312.9,106.6z M1252.7,181.4l54.9-1l1.6-32.8l-54.8,1
	L1252.7,181.4z M1254.6,144.6l54.5-1l1.6-32.8l-54.5,1L1254.6,144.6z M1256.5,107.8l53.6-1l1.5-31l-53.6,1L1256.5,107.8z"/>
<path class="st0" d="M1297.8,241.3c-0.4-1.6-0.9-3.5-1-5.5c-1.3-0.1-1.7-0.6-1-1.4c0.6-0.8,1.9-1.8,4-2.9
	c5.1-2.6,10.5-10.3,16.3-23.2c2.4-0.3,5.1-1.1,8.1-2.2c4-1.5,6.6-2.4,7.8-2.7c7-1.9,15.8-1.9,26.4-0.1c5.5,0.9,11.5,1.2,18.1,0.9
	c1.9-0.1,4.4-0.3,7.7-0.6c3.1-0.3,5.4-0.5,6.7-0.6c4.6-0.2,7.9,0.3,10,1.6c2.6,1.5,4.2,4.4,4.9,8.7c0.2,1.2,3.7,0.7,10.6-1.5
	c2.3,0.3,7.4,0.8,15.4,1.5c4.5,15.4,7.5,23.4,9,23.9c1.2,0.4,1.8,1.8,1,4.1H1297.8z M1391.2,67l21.9,23.1l-0.9,81.1L1391,189
	l-39.8-1l-21.2-20.4l-0.8-78.6l25.2-22.5C1354.4,66.5,1391.2,67,1391.2,67z M1400.7,99.7l-1,24.4h0.8l-1.1,25.7h0.3l-1.1,25.7h0.3
	l-1.1,34.8l-2.7-0.1l1.1-32l-49.4-2l-1.1,31.8l-2.6-0.2l1.2-34.5h0.1l1.1-25.7h0.1l1.1-25.7h0.1l1-24.3L1400.7,99.7L1400.7,99.7z
	 M1395.9,175.5l1-23l-49-1.9l-1,22.9L1395.9,175.5z M1396.7,149.8l1-23l-48.7-1.9l-1,22.9L1396.7,149.8z M1397.1,124l1-21.6l-48-1.9
	l-1,21.7L1397.1,124z M1368.1,161.7l10.4-0.1l6.3-8.5l-0.8-50.5l-6.2-8.3l-10.1-1l-7.7,8.5l1,51.4L1368.1,161.7L1368.1,161.7z"/>
<path class="st0" d="M1359.9,240.1c-3.7-7.1-5.1-9.5-6.2-9.9c-2.6-1-1.2-2.4,4.4-4.1c5.8-1.8,13.5-5.1,23-9.9
	c8.9-4.5,14-6.9,15.3-7.2c1.4-0.3,6.6,1,15.5,4c3.8-4,6.7-5.8,8.7-5.5c2.8,0.5,4.6,0.3,5.4-0.6c2.6-3,6.2-3.3,11-0.9
	c6-3.7,10.6-4.9,14-3.6c2.9,1.1,7.4,3.3,13.5,6.5c7.1,3.7,11.3,5.9,12.6,6.5c1.3,0.6,3.2,0.7,5.8,0.3c0.4-0.1,1.6-0.3,3.6-0.7
	c1.5-0.3,2.8-0.5,3.8-0.7c3.2-0.3,6-0.2,8.5,0.5c3.3,1,6.3,3,9.1,5.9c2.5,2.7,6.2,5.2,11.2,7.5c4.8,2.2,9,3.5,12.6,3.7
	c1.7,0.2,2.1,0.8,1.3,1.8c-0.8,1-2.4,2.3-5,3.7c-1.6,0.9-3.2,2.2-4.9,3.9l-161.7,0L1359.9,240.1z M1464,56.3l-3.1,89.7l15.3,0.6
	l-2.3,26.7l-49.3-1.2v-27.3h11.4l1.3-59.4l-8.9-1.2V55L1464,56.3z M1477.3,102.7h0.7l-1.5,37h0.3l-1.5,36.9h0.3l-1.7,49.9l-2.4,0.1
	l1.5-46l-43.9,1l-1.2,45.7l-2.4,0.3l1.6-49.2h0.1l1.5-37.7h0.1l1.4-37.6h0.1l1.3-34.6l47-1L1477.3,102.7L1477.3,102.7z
	 M1429.6,177.7l43.5-1l1.2-33l-43.4,1L1429.6,177.7z M1431,140.8l43.2-1l1.2-33l-43.1,1L1431,140.8L1431,140.8z M1432.5,104l42.4-1
	l1.2-31.1l-42.5,1L1432.5,104L1432.5,104z"/>
<path class="st0" d="M1468.8,241.3c1.2-16.9,3.2-27.6,5.9-28.4c9.5-2.7,20.4-3.3,32.7-1.7c8.9,1.1,18.6,1.8,29,2.1
	c5.5,0.2,9.7,1,12.5,2.5h0.1l0.1,0.1c6.5-1.2,17.4-1.7,32.7-1.7c6.9,0,14.2-0.3,22.1-1c15.4,14.5,23.9,21.7,25.4,21.6
	c0.1,0.6,0.2,1.2,0.3,2c-1.2,1.8-2.6,3.4-3.8,4.5H1468.8z M1567.3,81.7l3.2,68.5l-19,19.6l-51.4,0.1l-2.4-24.7l43.7-0.6l-1-17.4
	l-32.3-0.1l-19.2-19.6l-2.1-25.4l17.9-23.6l42.9-0.7L1567.3,81.7L1567.3,81.7z M1557.6,118.1h0.9l1.6,33.6h0.3l1.6,33.6h0.3
	l2.5,45.3h-3l-2.4-41.7l-55.2,1l2.3,41.4l-3,0.3l-2.4-44.7h0.2l-1.7-34.1h0.2l-1.7-34.2h0.1l-1.3-31.4l59.3-0.9
	C1556.2,86.3,1557.6,118.1,1557.6,118.1z M1501.2,118.3l53.5-0.9l-1.3-28.3l-53.5,1C1499.9,90.1,1501.2,118.3,1501.2,118.3z
	 M1502.8,151.9l54.4-1l-1.4-29.9l-54.4,1L1502.8,151.9z M1504.3,186.2l54.8-1l-1.5-29.9l-54.8,1L1504.3,186.2z M1518.6,103.5
	l16.8-0.6l5.1-6.2l-0.6-9.2l-5.9-5.8l-16.2,0.2l-5.1,6.2l1.2,9.9L1518.6,103.5L1518.6,103.5z"/>
<g>
	<path class="st0" d="M1573.3,218.7c38.6-54.1,50.6-66.8,62.8-115.8c-0.4,1.2-0.8,2.2-1.2,3c0.6-5.5,0.5-11-0.2-16.8
		c-0.5,2.4-1.5,4.8-3,7.5c0.8-5.5,1-9.8,0.6-13.2c-0.1-0.3-0.1-0.5-0.1-0.7c0-0.6-0.2-1.1-0.5-1.4c-0.2,0.9-0.4,2.5-0.6,4.8
		c-0.2,2.1-0.5,3.7-0.9,4.8c0-2.4,0.1-4.8,0.2-7.2c0.3-2.4,0.7-4.7,1.2-7.1c-0.6,1.4-1.3,2.9-1.9,4.3c0.3-2.3,0.9-4.9,1.8-7.9
		c0-0.1,0.1-0.3,0.2-0.5c-0.1-0.9,0.6-2,2.2-3.3c1.3-1.1,2.2-2.3,2.9-3.8c-1.4-0.4-3.1-0.7-5-1c-2.1-0.3-4.4,0.1-6.8,1
		c0,0.3,0,0.4,0,0.3c0.1,3.2-0.5,5.9-1.6,8.3c0.2-1.7,0-3.5-0.5-5.3c-0.2,5.5-1.8,10.3-5,14.4c1.8-4.7,2.3-8.5,1.5-11.4
		c-1.3,5.7-4.6,9.7-10,12c3.5-2.6,5.8-5.8,6.9-9.5c-0.9,0.3-2.8,2.2-5.7,5.5c-2.9,3.3-6.2,4.7-9.9,4c3.2,0,5.9-1.9,8.1-5.8
		c-2.2,0.9-4.7,1-7.2,0.5c-0.3,0.1-0.6,0.1-0.8,0.2c0.1,0,0.2-0.1,0.5-0.2c-1-0.3-1.8-0.6-2.5-0.9c1.6,0.1,3.2,0,4.7-0.4
		c1.1-0.7,2.2-1.6,3.3-2.5c-0.3-0.1-0.6-0.1-1-0.2c-5.1,2.7-11.9,4.9-20.6,6.7l14.8-8.8c-8,1.6-16.4,6.3-25,14.4
		c2.8-4.7,7.2-10,13.1-15.9c-0.1,0.1-0.2,0.2-0.4,0.3c-2.3,1.7-4.6,3.4-7,5.1c0.4-2.1,2.5-5,6.3-8.7c3.8-3.6,8.1-5.5,13-5.6
		l-7.3,0.2c3.3-2.1,9.8-3.2,19.3-3.1c2,0,3.8,0,5.2,0.1c1.8-2,3.1-3.1,3.9-3.4c1.9-0.6,5.5-0.6,10.7,0c1.4,0.2,2.7,0.4,4,0.8
		c-1.3-1.8-3.2-3.5-5.8-5.3c-3.4-2.4-7.4-2.9-12.2-1.6c2.5-1.7,4.9-2.5,7.2-2.5c-1.3-1.3-4.1-0.8-8.4,1.5c-4.3,2.4-9.2,2.8-14.7,1.1
		c2.8,0.1,5.7-0.4,8.5-1.4c-4.3,0.9-11.3,0-20.9-2.8l14.2-0.7c-6.5-2-14.4-1.7-23.7,0.8c3.8-2.4,9.1-4.5,15.6-6.5
		c-0.2,0-0.3,0-0.4,0.1c-2.4,0.4-4.7,0.7-7.1,1c1.1-1.4,3.7-2.8,7.9-3.9c4.2-1.2,8.1-0.9,11.7,0.9l-5.5-2.6
		c3.3-0.3,8.4,1.4,15.3,5.1c6.6,3.5,12.4,8,17.4,13.3c0.9,1,1.7,2,2.4,3c-0.3-1.6-0.8-3.4-1.5-5.4c-1.6-4.5-4.9-7.8-10-9.9
		c3.4,0.2,6.1,1.1,8.2,2.7c-0.3-2.2-3.2-3.7-8.7-4.4c-5.4-0.7-10.1-3.7-14-9.1c2.5,2,5.4,3.5,8.6,4.5c-4.5-2.1-10.2-7.8-17.1-16.9
		l13.3,9.1c-4.6-6.3-11.9-11.4-22.1-15.6c5,0.5,11.2,2,18.4,4.7c-0.1-0.1-0.3-0.1-0.5-0.2c-2.4-1.2-4.7-2.5-7.1-3.8
		c1.9-0.6,5.2,0,9.7,1.8c4.5,1.8,7.9,4.7,10,8.9l-3.2-6.3c3.1,2,6.6,7.1,10.5,15.3c1.3,2.7,2.3,4.8,3,6.5l0.6,0.6
		c-2.2-6.5-2.7-11.1-1.4-13.7c0.9,3.3,2,6.1,3.3,8.6c0.3-2-0.2-5.1-1.5-9.2c-1.2-3.8-1.9-5.7-1.9-5.6c6.6,5.5,10,8.3,10,8.3
		c-0.1-0.1-0.1-0.2-0.2-0.2c-0.6-1.4-1.1-2.8-1.4-4.3c2.1,0.5,4,2,5.6,4.3c1.4,1.9,1.3,4.3-0.3,7.1c0.8-1.2,1.7-2.4,2.8-3.6
		c0,1.2-0.3,2.5-0.9,4.1c1.6-1.9,4.3-4.6,8-8.2c6.7-6.5,12-10.1,15.8-10.8l-5.4,4.8c3.6-3.2,7.9-4.8,13-4.8c5.1,0,8.6,0.6,10.3,1.9
		c-2.8,0.4-5.6,0.7-8.3,1c-0.2,0.1-0.3,0.1-0.6,0.1c8.1,0.2,14.8,1,19.9,2.4c-11.4,0.2-20.5,2.4-27.3,6.7l16.4-3.8
		c-10.1,6.3-17.7,9.6-22.9,9.9c3.5,0.3,6.9-0.1,10.1-1.1c-0.7,0.5-1.6,1-2.7,1.5c6.8,0.1,11.8,1.3,15.1,3.7h-6.8
		c4.5,0,9.5,2.6,14.8,7.8c5.3,5.2,8.7,9.4,10.2,12.6c-3-2.4-6-4.8-9-7.2c-0.2-0.2-0.4-0.3-0.6-0.5c8.4,8.4,15.2,16.1,20.1,23
		c-11.6-11.1-21.5-17.7-29.7-19.8c-0.1,0-0.1,0-0.2,0.1l17.7,12c-10.9-2.7-19.2-6.2-25.1-10.6c-0.3-0.1-0.4-0.1-0.3-0.1
		c3.5,3.5,6.8,6.1,9.7,7.9c-3.4-0.7-7.1-2.6-11.1-5.6c-4.2-0.1-7.7-1.4-10.6-4c0.8,2.4,3,4.8,6.7,7.2c-4.4-1.4-8-4-10.8-7.8
		c0.5,1.5,1.2,2.8,2.2,3.8c-2-1.1-3.8-2.8-5.3-5.1c-1.5-2.2-3.3-3.4-5.5-3.5c1,2,2.2,2.9,3.6,2.9c-1.6,0.2-3-0.2-4.1-1.1
		c-0.9-0.7-1.3-0.7-1.2,0.1c0.7,1.4,1.8,2.3,3.2,2.6c-0.6,0.1-1.3,0-2.1-0.2c0.3,0.6,0.7,1.7,1,3c0.4,1.5,0.8,2.6,1,3.3
		c8.3,0.3,16.7,2.5,25.2,6.4c8.8,4.1,14.3,8.1,16.4,11.9l-6.6-3.4c4.4,2.3,7.6,6.3,9.5,11.9c1.9,5.7,2.6,9.9,2,12.5
		c-1.4-2.9-2.8-5.8-4.2-8.8c-0.1-0.2-0.2-0.3-0.3-0.5c2.9,9.1,4.7,17,5.3,23.5c-4.5-12.7-10.2-21.7-16.9-26.9l9.9,16.3
		c-9.8-7.9-15.9-14.6-18.2-20.3c1.1,4.1,2.8,7.6,4.9,10.7c-5.8-4.5-9.1-10.2-9.9-17.2c-0.9-7-2.5-10.6-4.8-10.7
		c1.8,2.4,2.8,5.9,3,10.3c-2.3-6.5-5.9-10.5-10.7-11.9c-1.1-0.3-2.1-0.6-3-0.8c0.6,0.8,1.3,1.5,2.1,2.1c4.9,3.6,7.2,6.7,7,9.2
		c-0.4-2.7-3-5.6-7.8-8.7c-1.2-0.7-2.1-1.7-2.9-2.9c-4.7-0.7-8.6,0.1-11.6,2.4c1.3,1.4,2.5,2.9,3.6,4.5c0.6,0,1.4,0.2,2.4,0.6
		c1.3,0.5,2.3,0.9,3.1,1c-0.5,0.5-1.6,0.5-3.3-0.2c0.3,0.4,1,0.9,2.1,1.4c1.8,0.7,3.7,0.8,5.8,0.3c-1,1.1-1.9,1.8-2.7,2.1
		c0.2,0.1,0.5,0.2,0.7,0.3c3.3,0.5,6.2,0.1,8.7-1.4c-0.8,1.1-2,2-3.5,2.7c1.6,0.1,3-0.3,4.2-1c-0.8,1.3-2.2,2-4.1,2.2
		c3,0.5,5.9,0.2,8.4-1c-1.7,1.9-3.9,3-6.7,3.1c2.7,1.8,5.2,2.2,7.4,1.3c-2.3,1.4-5,1.6-8,0.3c-3-1.2-4.9-1.8-5.7-1.8
		c2,2,4.6,3.3,7.8,3.9c-2.9,0.1-5.6-0.7-7.9-2.2c-0.5,0-1,0-1.6,0h-0.2c0.9,1.4,2.1,2.8,3.6,4.2c-1.8-0.9-3.6-2.2-5.3-3.9
		c-1,0.3-1.9,0.7-2.6,1.4v-0.6c0.1-0.6,0.2-1.2,0.2-1.8c-0.1,0.1-0.1,0.1,0.1,0c-0.1-0.1-0.1-0.1-0.2-0.2l-0.1,2
		c-0.1,0.4-0.1,0.7-0.1,0.7v-0.1h0.1l-0.1,0.6c-0.2,0.1-0.2,0.1-0.1,0.1c-0.1,0.4-0.1,0.5-0.1,0.2c-1.6,8.6-2.7,13.7-3.4,15.5
		c0.2-4.3,0.8-10.9,1.7-19.6c-0.2-0.1-0.7,3.2-1.6,9.7c-1,7-1.3,12-1,15c-1.4-6.9-1.8-12.9-1.4-17.9c-2.6,8.9-2.7,16.9-0.5,24.1
		c-2.4-3.8-3.6-9.5-3.7-17.2c-0.2,1-0.7,2.2-0.6,3.6c1.1,12.3-3.2,25-8.9,43.4c-11.1,29.9-23.6,50-45,79.8 M1690,53.4
		c0.1,0,0.1,0,0.2-0.1l-0.6-0.2L1690,53.4z M1677.2,53.6c-1.6-0.3-2.6-0.3-3-0.2c1.4,1.1,3.3,2,5.7,2.6
		C1678.9,55.3,1678,54.5,1677.2,53.6z M1671.9,47.6c-0.1,0.1-0.1,0.1-0.2,0.1c0.1,0.1,0.3,0.1,0.6,0.2
		C1672.1,47.8,1672,47.7,1671.9,47.6z M1670.3,45.6c-0.6-0.6-1.1-1.2-1.6-1.8c-0.4,0.3-0.9,0.4-1.4,0.4c0.4,0.4,0.8,0.8,1.1,1.2
		C1669,45.5,1669.6,45.6,1670.3,45.6z M1668.5,43.7c-2.9-2.9-4.9-4.1-5.9-3.4c1,0.5,2.2,1.5,3.7,3
		C1667,43.4,1667.7,43.6,1668.5,43.7z M1657.5,36.5c0.9-0.4,1.7-0.8,2.6-1c-4.7-0.8-7.4-0.3-8.3,1.4
		C1653.4,36.3,1655.3,36.2,1657.5,36.5z M1656.3,43c-4.2,1.1-7,3.1-8.5,6c1-0.6,2-0.8,3.1-0.7c0.3,0,0.6,0,1,0.1
		c0.4-0.3,0.7-0.6,1-0.9c3.2-2.4,5.6-3.8,7.2-4.5C1658.8,42.7,1657.5,42.7,1656.3,43z M1654,50.8c-0.3,0.2-1.3,1.3-3,3.2
		c-1.3,1.5-0.6,2.5,2.1,2.9c-1.9,0.4-3.2,0.2-3.9-0.6c-0.5,1.2-0.9,2.5-1.1,4c2.9-1.4,6.2-2.1,9.9-2.1
		C1656.4,53.9,1655,51.4,1654,50.8z M1654.3,38.6c-2.9,1-5.2,2.5-6.9,4.5c-0.3,0.3-0.5,0.6-0.8,1c-0.1,0.6-0.2,1.3-0.4,2
		c1-1.6,2.3-3,3.8-4.2C1652.3,40.1,1653.7,39,1654.3,38.6z M1654.1,77L1654.1,77l-0.1,0.4c0.1,0.1,0.1,0.1,0.1,0.2V77z M1646.6,52.6
		c-0.1,0.7-0.2,1.5-0.2,2.3c1-1.7,2.1-3.3,3.5-4.7C1648.7,50.5,1647.6,51.2,1646.6,52.6z M1639.5,55.9c0.2-2.9,1.1-5.9,2.6-9
		c-2.6-3.1-4.1-4.5-4.3-4.1l5.2,2.3c0.2-0.2,0.3-0.5,0.4-0.7c-0.8-1-2.6-1.8-5.3-2.6c-0.5-0.2-1.1-0.4-1.6-0.6
		c1.1,2.9,2,7.7,2.9,14.5L1639.5,55.9z M1642.2,59c0,0,0-0.1,0.1-0.3C1642.2,58.8,1642.2,58.9,1642.2,59c0,0-0.1,0.1-0.2,0.2
		l0.1,0.1C1642.2,59.1,1642.2,59,1642.2,59z M1633.5,59.8c-0.9-0.2-1.3,0.1-1.4,0.6c-0.1,0.3-0.2,0.6-0.3,0.9c1,0.3,2.9,1,5.6,1.9
		c0.2-0.6,0.3-1.3,0.3-2.1C1635.3,60.4,1633.9,59.9,1633.5,59.8z M1629.2,60.3c0,0.1,0,0.1-0.1,0.2c0.4,0.1,0.8,0.2,1.2,0.4
		c0.1-0.5,0.1-0.9,0-1.3C1629.9,58.8,1629.6,59,1629.2,60.3z M1626.5,60c0.4,0.1,0.7,0.1,1.1,0.2c0-0.5,0-1-0.1-1.4
		C1627.3,59,1626.9,59.4,1626.5,60z"/>
</g>
<g>
	<path class="st0" d="M741.9,218.5c-0.1-0.1,1.8-5.5,2.5-8.3c1.8-7.3,2-15.1,0.5-23.5c-0.3-0.9-0.5-1.7-0.8-2.3
		c0.9,5.1,0.7,9.1-0.5,11.9c0.7-5-0.4-10.4-3.1-16c0.9,3.3,1.3,7.3,1.2,12.1c-0.1-2-0.9-5.3-2.4-9.9c-1.3-4.3-2.1-6.3-2.2-6.3
		c1.6,5.7,2.7,10,3.4,12.9c-0.6-1.1-2-4.4-4-9.9c0.1,0.2,0,0.1-0.1-0.2c0.1,0,0.1,0-0.1,0l-0.1-0.4l0.1,0l0,0.1c0,0-0.1-0.2-0.1-0.5
		l-0.3-1.3c-0.1,0.1-0.1,0.1-0.1,0.2c0.1,0,0.1,0,0.1,0c0.1,0.4,0.2,0.7,0.4,1.1l0.1,0.4c-0.6-0.3-1.2-0.5-1.9-0.6
		c-0.9,1.3-2,2.4-3.1,3.2c0.9-1.1,1.5-2.2,1.9-3.2l-0.1,0c-0.4,0.1-0.7,0.1-1.1,0.2c-1.4,1.3-3,2-5,2.3c2.1-0.8,3.6-2,4.7-3.5
		c-0.5,0.1-1.7,0.7-3.6,1.8c-1.9,1.2-3.7,1.4-5.4,0.7c1.6,0.4,3.2-0.2,4.8-1.7c-1.9,0.2-3.5-0.2-4.9-1.3c1.9,0.5,3.8,0.4,5.7-0.3
		c-1.3,0.1-2.3-0.3-3-1c0.9,0.3,1.8,0.4,2.9,0.2c-1.1-0.3-2-0.8-2.7-1.4c1.9,0.7,3.9,0.7,6,0c0.2-0.1,0.3-0.2,0.4-0.3
		c-0.6-0.1-1.3-0.4-2.1-1.1c1.4,0.1,2.7-0.2,3.8-0.9c0.7-0.5,1.1-0.8,1.2-1.1c-1.1,0.6-1.8,0.8-2.2,0.5c0.5-0.2,1.2-0.6,2-1.1
		c0.6-0.4,1.1-0.6,1.5-0.7c0.5-1.2,1.2-2.3,1.9-3.4c-2.3-1.2-5-1.3-8-0.3c-0.4,0.9-0.9,1.6-1.6,2.3c-2.8,2.6-4.2,4.9-4.2,6.7
		c-0.4-1.7,0.8-4,3.6-7c0.5-0.5,0.9-1,1.2-1.6c-0.6,0.2-1.2,0.5-1.9,0.9c-3,1.5-5,4.6-5.7,9.2c-0.4-3-0.1-5.4,0.8-7.2
		c-1.6,0.3-2.2,2.9-2,7.7c0.3,4.8-1.3,9-4.6,12.6c1.1-2.3,1.7-4.9,2-7.7c-0.9,4-4.1,9.3-9.8,15.6l4.7-12c-3.9,4.3-6.6,10.9-8.2,19.9
		c-0.4-4.4-0.1-9.8,0.8-16.3c-0.1,0.1-0.1,0.2-0.2,0.4c-0.5,2.2-1.1,4.3-1.8,6.4c-0.7-1.7-0.7-4.5-0.1-8.6c0.7-4,2.3-7,5-9.1l-4,3.1
		c1-2.8,4.2-6.1,9.6-9.9c5.2-3.6,10.5-6,16.1-7.2c0.1-0.5,0.2-1.3,0.3-2.3c0.1-1,0.2-1.7,0.3-2.2c-0.5,0.2-0.9,0.4-1.4,0.4
		c0.9-0.4,1.5-1.1,1.8-2.1c0-0.5-0.3-0.5-0.8,0.1c-0.6,0.7-1.5,1.1-2.6,1.2c0.9-0.1,1.6-0.9,2.1-2.3c-1.5,0.3-2.5,1.3-3.3,3
		c-0.7,1.7-1.7,3-2.9,4c0.5-0.8,0.9-1.8,1-2.8c-1.4,2.8-3.5,5-6.3,6.4c2.1-2.1,3.3-3.9,3.6-5.6c-1.6,2.1-3.8,3.4-6.6,3.9
		c-2.3,2.5-4.5,4.1-6.7,5c1.8-1.5,3.6-3.6,5.6-6.4c0.1,0,0,0-0.2,0.1c-3.4,3.6-8.6,6.9-15.5,10l10.4-10.1c-0.1,0-0.1,0-0.2,0
		c-5.2,2.4-11,7.9-17.5,16.6c2.5-5.2,6.1-11.1,10.8-17.7c-0.1,0.1-0.2,0.3-0.3,0.4c-1.7,2-3.4,3.9-5.2,5.8c0.6-2.3,2.4-5.5,5.3-9.6
		c3-4.1,6-6.4,9-6.9l-4.5,0.8c1.9-1.9,5.1-3.3,9.6-4.2c-0.8-0.2-1.5-0.5-2-0.7c2.3,0.3,4.5,0.2,6.9-0.4c-3.5,0.4-9-0.9-16.4-4
		l11.3,0.6c-5-2.1-11.3-2.6-19-1.4c3.3-1.6,7.6-2.9,13-3.9c-0.1,0-0.3,0-0.4,0c-1.9,0.1-3.8,0.2-5.7,0.3c1-1.1,3.2-1.9,6.6-2.5
		c3.4-0.6,6.5,0,9.2,1.7l-4.1-2.6c2.6,0.1,6.5,1.9,11.8,5.4c2.9,2,5,3.5,6.3,4.5c-0.6-1-0.9-1.8-1.1-2.6c0.8,0.7,1.6,1.4,2.3,2.1
		c-1.4-1.7-1.7-3.3-1-4.7c0.8-1.7,1.9-2.9,3.3-3.5c-0.1,1-0.2,2-0.5,3c0,0-0.1,0.1-0.1,0.2c0,0,1.9-2.2,5.7-6.7c0,0-0.3,1.3-0.6,4
		c-0.4,2.9-0.4,5,0,6.3c0.6-1.8,1-3.8,1.2-6.1c1.2,1.6,1.4,4.7,0.7,9.3l0.4-0.4c0.3-1.2,0.7-2.7,1.2-4.7c1.7-5.9,3.4-9.7,5.2-11.4
		l-1.4,4.5c0.9-3,2.8-5.4,5.7-7.1c2.8-1.7,4.9-2.5,6.3-2.3c-1.4,1.2-2.8,2.3-4.3,3.4c-0.1,0.1-0.2,0.2-0.3,0.2
		c4.5-2.6,8.5-4.3,11.8-5.2c-6.3,3.9-10.6,8.2-12.9,12.9l7.8-7.6c-3.5,6.9-6.7,11.3-9.4,13.3c2-1,3.8-2.4,5.2-4
		c-2,4-4.7,6.6-8.3,7.7c-3.6,1.1-5.3,2.4-5.3,3.9c1.2-1.3,2.9-2.3,5.1-2.8c-3.2,2-5,4.6-5.5,7.8c-0.2,1.4-0.4,2.7-0.4,3.8
		c0.3-0.8,0.8-1.5,1.3-2.3c2.7-4.1,6.1-7.8,10.1-10.9c4.2-3.3,7.4-5,9.6-5.2l-3.3,2.4c2.2-1.6,4.8-2.2,7.7-1.9
		c2.9,0.3,4.8,0.9,5.7,1.7c-1.6,0.1-3.2,0.1-4.8,0.1c-0.1,0-0.2,0-0.3,0c4.6,0.6,8.3,1.4,11.2,2.5c-6.5-0.6-11.8,0.1-15.9,2.2
		l9.6-1.2c-6.1,3-10.6,4.4-13.6,4.3c2,0.4,4,0.3,5.8,0c-3.5,1.7-6.8,2.1-9.9,0.9c-3.1-1.1-5.1-1.1-5.8,0c1.5-0.3,3.2,0,5.1,0.8
		c-3.3-0.3-6,0.5-7.9,2.5c-1.5,1.5-2.6,2.9-3.2,4.2c0.8-0.4,1.7-0.7,2.6-1c3.5-1,5.8-1.5,7.2-1.2c0.6,0.1,1.6,0.7,3,1.8
		c1-0.2,2.1-0.4,3.5-0.7c6.4-1.1,10.8-1.2,13.3-0.1l-4.9,0.7c3.3-0.5,6.4,0.3,9.3,2.2c3,2,4.7,3.7,5.2,5.1c-1.8-0.8-3.5-1.7-5.2-2.6
		c-0.2-0.1-0.3-0.1-0.3-0.2c4.6,3.2,8.1,6.3,10.5,9.1c-6.7-4.4-12.8-6.6-18.3-6.7l10.9,4.2c-6-0.2-10.8-0.9-14.5-2.1
		c-0.2,0.1-0.4,0.1-0.6,0.2c0.8,0.5,1.6,0.9,2.5,1.3c1,0.1,2.1,0,3.1-0.3c-0.4,0.3-0.9,0.6-1.6,0.9c0.2,0.1,0.3,0.1,0.3,0.1
		c-0.1,0-0.3,0-0.6,0c-1.6,0.7-3.3,0.8-4.9,0.5c1.9,2.3,3.9,3.3,6.1,2.9c-2.4,0.9-4.7,0.3-7-1.5c-2.3-1.9-3.8-2.9-4.4-3
		c1.2,2.4,3.1,4.2,5.7,5.6c-3.9-0.9-6.6-3.2-8.1-6.9c-0.2,2,0.6,4.5,2.3,7.4c-2.6-2.4-4.2-5.4-5-9.1c-0.1,1.3,0,2.5,0.3,3.6
		c-1-1.5-1.7-3.3-2-5.4c0,0,0,0,0-0.2c-1.7-0.3-3.3-0.3-4.7,0.1c-1.2,0.4-2.3,0.8-3.2,1.2c0.6,0.9,1.4,1.6,2.4,2.2
		c1.2,0.7,1.8,1.4,1.8,1.9c0.1,0.1,0.2,0.2,0.2,0.3c0.9,1.9,1.6,3.6,2.1,5.1c-0.6-0.9-1.2-1.8-1.8-2.7c0.6,1.5,1.1,3.1,1.6,4.6
		c0.3,1.6,0.7,3.2,0.9,4.8c-0.4-0.7-0.8-1.7-1.1-3.1c-0.4-1.5-0.7-2.6-1-3.1c-0.2,0.3-0.2,0.6-0.2,1c0,0.1,0,0.3,0,0.5
		c0.1,2.3,0.8,5.2,1.9,8.7c-1.3-1.6-2.2-3.1-2.8-4.6c0.2,3.9,0.7,7.6,1.8,11.2c-0.4-0.5-0.8-1.1-1.1-1.8
		c-0.6,11.9-1.7,13.7-0.8,24.6 M709.1,163.8l-0.4,0.2c0.1,0,0.1,0,0.2,0L709.1,163.8z M716,164.6c1.5-0.7,2.7-1.5,3.5-2.4
		c-0.3,0-1,0.1-2,0.5C717,163.3,716.5,164,716,164.6z M720.1,158.3c0.2-0.1,0.3-0.2,0.3-0.2c-0.1,0-0.1,0-0.2,0
		C720.2,158.1,720.2,158.2,720.1,158.3z M722.3,156.2c0.2-0.3,0.4-0.6,0.6-0.9c-0.4,0.1-0.7,0-1-0.1c-0.3,0.4-0.5,0.9-0.9,1.4
		C721.5,156.4,722,156.3,722.3,156.2z M723.5,154.5c0.8-1.1,1.5-1.9,2.1-2.4c-0.7-0.4-1.9,0.6-3.5,2.9
		C722.6,154.9,723,154.7,723.5,154.5z M732.4,148.6c-0.8-1-2.7-1-5.7,0.1c0.6,0.1,1.3,0.2,1.9,0.4
		C730.1,148.5,731.3,148.4,732.4,148.6z M727.6,153.6c1.2,0.2,3,1,5.3,2.2c0.2,0.1,0.5,0.3,0.8,0.5c0.2-0.1,0.4-0.1,0.6-0.2
		c0.7-0.2,1.5-0.2,2.2,0.1c-1.3-1.8-3.5-2.8-6.4-3C729.3,153.1,728.5,153.3,727.6,153.6z M730.8,163.5c2.5-0.5,4.8-0.4,6.9,0.2
		c-0.4-1-0.8-1.8-1.2-2.5c-0.4,0.6-1.2,0.9-2.6,0.8c1.8-0.6,2.1-1.3,1.1-2.2c-1.4-1.1-2.2-1.7-2.4-1.8
		C731.9,158.6,731.4,160.4,730.8,163.5z M734.2,151.7c1.1,0.6,2.1,1.4,3,2.3c-0.2-0.5-0.4-0.9-0.5-1.3c-0.2-0.2-0.4-0.4-0.6-0.5
		c-1.3-1.1-3-1.9-5.1-2.2C731.4,150.2,732.5,150.8,734.2,151.7z M735.6,176c0-0.1,0-0.1,0-0.2l-0.1-0.3l0,0.1L735.6,176z
		 M735.3,157.3c1.1,0.8,2.1,1.7,2.9,2.7c-0.1-0.5-0.3-1-0.4-1.5C736.9,157.7,736.1,157.3,735.3,157.3z M742.9,159.7
		c-0.2-4.6-0.1-8,0.3-10c-0.3,0.2-0.7,0.4-1,0.6c-1.7,0.8-2.8,1.6-3.2,2.3c0.1,0.2,0.2,0.3,0.4,0.4l3.2-2.2c-0.2-0.2-1,0.9-2.4,3.2
		c1.4,1.9,2.3,3.8,2.8,5.7L742.9,159.7z M741.5,162.4L741.5,162.4c0-0.1-0.1-0.2-0.1-0.2c0,0,0-0.1-0.1-0.2c0.1,0.1,0.1,0.2,0.1,0.2
		S741.4,162.3,741.5,162.4z M744.6,163.1c0.1,0.5,0.3,0.9,0.5,1.4c1.7-1,2.9-1.6,3.5-1.9c-0.1-0.2-0.2-0.3-0.3-0.6
		c-0.1-0.4-0.5-0.5-1-0.3C747,161.9,746.2,162.3,744.6,163.1z M749.4,161.3c0,0.3,0.1,0.5,0.1,0.9c0.2-0.2,0.5-0.3,0.8-0.4
		c0-0.1-0.1-0.1-0.1-0.2C749.8,160.8,749.5,160.7,749.4,161.3z M751.1,160.4c0,0.3,0,0.6,0.1,0.9c0.2-0.1,0.5-0.2,0.7-0.3
		C751.6,160.7,751.4,160.5,751.1,160.4z"/>
</g>
<g>
	<path class="st0" d="M751.1,241.3l-12.2-16l-11.3-0.2V224h-2.3v-7.4h-0.6v-2.4h-6.4l1.2-10H718v-1.1l-5.6,0.4v14.1h-1v2.3h-2.7
		v-18.7l-3.1,0l0-2.6h-6.2v-1.1l-10.2,0.1v1.2h-4v10.1h-2.6v2.4l0,2.8l-1.3,0l0-20.1h-12.6v-5h-4.5l-1.5,0.7v3.9h-4.3v-2.3h-4.7v-15
		h-1.3v-4.8h-12.1v-1.2h-11.9v1.3h-3v-2.7h-9.1v-2H612v1.6h-3.9l-12.8,0.9v28.7h-2.1v3.4h-1.6v-1.3h-1.5v2.1h-2.3v-37.7h-4.3V163h-2
		l0-3.7h-12.5V157h-9.4v-0.9h-7.7v1.1h-3.6v2.5h-8.1v20.6h-5.4v4.9h-0.8v5.6h-1.5v3.7h-2.9v-4.2h-2.1V187h-1.9v-13.5h-1.9v-6.4h-1.2
		V161h-1.5v-2.5l-3.7-6.6c-2.5-1.1-3,0-3,0l-4.6,6.2v3.2h-1.1l-0.8,1.3v5.6H507v4.5l-2.5,1.3v3.7h-0.8v-76.5h-3.3v-7.7h-40.5V135
		h-16V72.4c0,0,16.3-0.1,16.4,0v-2.9h-17.2L428.4,71v10.8l-5-0.1l1.8,80h-10.7V91.3h-2.6V59.6h-3.7v-8.8h-1l0-8.1h-6.5v-1.9h-4.8
		v1.9h-8.1l0,8.4H387v8.3l-3.2,0.7v2.2h-0.7v29.5h-1.5v2.9h-10.1l0-11.8h-41.5v15.5h-22.6v2.3h-4.1v-3.4h-1.4v-2.9h-1.5v-2.7h-4.2
		v-1.8l-39.9,0v66.2l-9.1,0v5.6h-2.8v4.6h-6.9v2h-2v0.8h-1.5v0.5h-2.2v2.3H220v24.6h-4.7V129h-8.1v-0.9h-16.3v0.9h-8.1v6.9h-19v36.9
		h-23.6c0,0.2,0-1.6,0-1.4h1v-0.9h-2.3v-4.2h-10.7v-1.8l-23.5,0v2.1h1.2v1.3h-2.7v11.7h-4.3l-0.1,0.1v13.6h-7.2v2.5h-1v24.3h-0.3
		v-1.2l-0.8-0.4v-1.4h-0.2v-1.8l-0.3-0.4h-0.3v-1l-1.5-2c0,0-0.2-0.3-1,0l-1.2,2.1v0.8h-0.5v1.9h-0.4v2h-0.6v4.3H83v1h-0.7v1.3h-0.9
		v-1.2h-0.5v-1.8h-0.3v-1.6H79v-6.6h-2.6v-0.8h-1.2v-0.3h-2.5v0.3h-3v0.7h-4v1.2h-0.6v0.5h-1.4v12H63v-0.7h-0.5v0.4H62v-1.1h-0.7
		v-9.1l-3.7-0.3v0.7h-0.9l0.5,6.1v0.4h-3.8v1.5H53v4.8h-1.5v0.7h-1.4v-1.2l-0.5-0.2h-1.4v1.6h-4l-8,9.8 M194.2,210.5h-2.3v-68.3h2.3
		V210.5z M198,210.5h-2.3v-68.3h2.3V210.5z M512.9,161.4h-2.7v-2.2l2.7-0.4V161.4z M515.7,158.9h3.4v2.5h-3.4V158.9z"/>
	<path class="st0" d="M459.9,72.7"/>
	<path class="st0" d="M581.5,163"/>
</g>
<g>
	<path class="st0" d="M13.3,241.3c-0.4-2-0.6-4.4-0.7-7.1c-0.5-0.8,0.5-1.3,2.9-1.5c2.3-0.1,4-0.4,5.1-0.7c0.9-0.3,1.7-0.9,2.6-1.8
		c3.2-3.2,6.4-5.7,9.7-7.6c5-2.9,8.1-4.3,9.3-4.2c0.1,0,0.7,0.2,1.8,0.7c0.9,0.4,2.1,0.7,3.5,0.8c2.7,0.2,4.9-0.2,6.6-1.2
		c2.1-1.2,3.6-1.8,4.4-1.9c1.4-0.2,2.8-1.1,4.2-2.8c1.4-1.7,2.5-2.7,3.3-2.8c2.9-0.5,5.8-1.5,8.7-3.1c3.9-2,7-3.1,9.4-3.1
		c1,0,2.1,0.7,3.2,2c1.4,1.6,2.7,2.7,3.7,3.2c2.6,1.2,4,1.9,4.3,2.1c1.1,0.8,1.4,2,0.9,3.6c-0.6,1.7-0.1,3.3,1.2,4.8
		c1.3,1.3,3,2.3,5.1,2.8c1.2,0.3,2.5,0,3.9-0.9c1.7-0.8,3.1-0.8,4.3-0.1h0.1c1.1-1.1,1.7-1.9,1.8-2.2c0.4-1.7,2.1-3.2,4.9-4.7
		l4.6-3.4c0.5-0.2,1-0.3,1.6-0.2c1.7,0.1,2.7,0,3.2-0.2c0.2-0.2,0.7-0.1,1.5,0.2c0.8,0.3,1.4,0.7,1.8,1.2c0.4,0.5,0.6,0.9,0.5,1.2
		c-0.3,0.6-0.4,1.1-0.4,1.5c0,1.5,0.8,2.9,2.4,4.2l1.6-0.8c0.7,0.2,1.1,0.8,1.2,1.7c0.1,0.4,0.1,0.8-0.2,1.1
		c0.1,0.1,1.1,0.6,3.1,1.5c2.2,0.8,3.3,1.6,3.3,2.3c0,0.8,0.9,1.9,2.6,3.2c0.5,0.4,1.2,0.9,2.2,1.5c0.9,0.6,1.5,1,1.8,1.2
		c0.2,0.2,0.7,0.6,1.6,1.1c0.7,0.4,1.3,0.8,1.7,1.1c2.5,0.3,3.3,2.9,2.5,7.6H13.3z"/>
</g>
</svg>
