<svg version="1" xmlns="http://www.w3.org/2000/svg" viewBox="0 0 960 250"><path fill="#444" d="M93.1 198.6c1.3-2.7-4-45.4-3.5-67.3-.6 1.3-1.2 2.5-1.8 3.4 1.6-7 1.8-13.7.6-19.9-.6 2.8-2 5.8-4 8.8 1.2-6.1 1.5-11.2.7-15.4 0 .1-.1-.2-.3-.9-.5-2.2-.8-1.7-1 1.3-.3 4.5-.9 7.3-1.6 8.4v-8.5l1.3-8.5-1.8 5.1c.2-2.6.7-5.7 1.6-9.3.1-.6.3-1.3.6-1.9-.2-.1-.3-.1-.5-.3-.1.5-.1.8-.2 1.1-.1-.5-.1-1-.2-1.5-.8-.8-.8-1.8-.2-3.1.1-1.4.2-2.5.5-3.3-1.4.3-1.8 3.1-1.2 8.3.6 5.2-.4 9.7-3.2 13.5.8-2.4 1.2-5.2 1.3-8.3-.5 4.4-3.1 9.9-7.8 16.6l3.4-12.9c-3.3 4.5-5.2 11.6-5.9 21.4-.7-4.8-.9-10.8-.6-17.8 0 .1 0 .3-.1.4-.3 2.3-.7 4.6-1.1 6.8-.8-1.8-1-4.9-.7-9.2.2-4.4 1.5-7.6 3.8-9.7L67.7 99c.7-3 3.4-6.4 8-10.2 4.5-3.7 8.7-5.9 12.6-6.7.9-2.2 1.5-4.3 1.7-6.4-1.2.3-2.8-.3-4.6-1.9 2.4.9 3.7.7 4.1-.6-.9-.3-1.8-.6-2.7-.8-5.9-1.4-12 .6-18.4 6.1 2.9-4.7 6-7.7 9.4-9.2-2.5-1.3-6.3 1.5-11.5 8.4s-12.1 10.9-20.8 12c4.1-1.9 8-4.7 11.7-8.3-5.9 4.5-16.3 7.9-31.4 10.1L46 80.6C35.8 82 24.4 88 12 98.7c4.5-6.6 11.1-13.8 19.8-21.7-.5.3-.7.5-.6.4-3.3 2.3-6.5 4.5-9.7 6.6.9-3.1 4.2-7 9.7-11.9 5.5-4.8 11.3-7.1 17.3-6.8l-9-.4c3.5-2.1 9.7-3 18.4-2.8-.6-.1-1.1-.1-1.5-.3 5.6-.3 9.6-1.6 12-3.7-6.3 1.3-12.2-.2-17.6-4.6 4.6 2.3 9.1 3.2 13.4 2.6-.9-.8-3.8-1.8-8.7-3.2-4.9-1.5-8.2-4.2-9.7-8.2 1.9 3.2 5.3 5 10.4 5.5-3.4-3-5.1-6.5-5.3-10.6 2 4.1 5.1 7.3 9.4 9.6-2.2-2.2-3.2-4.5-3-6.9.9 2 2.3 3.8 4.3 5.3-1.3-2.4-1.9-4.7-1.8-6.9 1.7 4.4 4.9 7.9 9.4 10.4.5.1 1 .2 1.3.3-.8-1.2-1.3-2.9-1.4-5.3 3 3.8 6.5 5.7 10.6 5.7-.5-.3-.9-.7-1.4-1-.8-.4-1.3-.9-1.7-1.4-1.9-1.5-3.3-3-4.4-4.4 2.9 2.2 6.2 3.8 9.9 4.9-5.2-2.3-11.9-8.6-19.9-18.8l15.5 10c-5.4-7-14-12.8-25.7-17.2 5.8.3 12.9 1.9 21.4 4.8-.1-.1-.1-.1-.3-.2-.1 0-.2 0-.3-.1-2.8-1.4-5.5-2.8-8.2-4.2 2.2-.8 6-.2 11.2 1.7 5.2 1.9 9.1 5.1 11.6 9.8l-3.7-7c3.5 2.2 7.6 7.9 12.2 17.1.4-12 .8-18.6 1-19.7.9 2.9 1.5 5.8 1.9 8.7-.6-6.6.5-11.6 3.5-14.9 3.5-4 6.8-6 9.9-6.1-1.3 2.8-2.7 5.5-4.3 8-.1.1-.2.2-.3.4.1 0 6.2-4.1 18.3-12.4-.1-.1-2.1 3.5-5.8 10.7-4.1 8-6.4 14-7.1 18.1 3.1-4.4 6.2-9.7 9.2-16 .2 5.1-2.5 13.4-8.2 24.9 2.4-2 6.3-4.8 11.7-8.3 10.9-7.2 19.6-10.5 26.1-9.9l-8.6 5.1c5.8-3.4 13.1-4 22.1-1.6 9 2.4 15 5 18.1 7.8-4.8-.6-9.6-1.4-14.5-2.2-.2 0-.5 0-.9-.1 14.2 4.1 26 8.5 35.1 13.2-20.1-5.1-35.7-5.8-46.8-2l28.1 1.6c-13 4.2-24.1 6.1-33.4 5.8.9.5 1.6.9 2.1 1.3 3.8.8 7.3 1.1 10.3 1.1-2.2.7-4.9 1.2-8.2 1.4 4.4 1.6 8 3.2 10.9 4.6-12.8-3.2-22.7-3.6-29.8-1.2l17.9 1c-10.6 3.4-18.7 4.5-24.5 3.3 4 1.3 7.7 1.9 11.2 1.8-6.1 2-12.4 1.5-18.7-1.5-6.3-3-10-3.7-11-2 2.7-.1 6.1 1 10 3.2-3.1-.8-6.2-1-9.2-.4 1 .7 1.9 1.9 2.5 3.7 2.2-1.3 4.6-1.8 7.2-1.7 5.1.3 8.7 1.7 10.9 4 1.2 1.2 2.4 3.9 3.8 8 .6.3 1.6 1.2 2.9 2.5 1.3 1.3 2.6 2.4 3.9 3.3-1.1.8-2.8.1-5.2-2.1.6 1.2 1.2 2.3 2 3.2 2.5 2.8 5.8 4.2 9.9 4.4-.7.6-1.5 1.1-2.4 1.6 2.7 1.7 5 3.5 6.8 5.1 2.1 0 4.2-.3 6.3-1-1.2 1.1-2.7 2-4.5 2.8.5.6 1 1.2 1.4 1.7 1-.1 2.1-.3 3.1-.6-.6.6-1.4 1.2-2.4 1.7.8 1.4 1.2 2.6 1.2 3.6 2.5.4 5 .3 7.6-.3-4 3.2-8.4 4.2-13.3 3 3.4 5.1 7.3 7.3 11.5 6.6-4.8 1.7-9.3.5-13.6-3.7-4.3-4.2-7.1-6.4-8.4-6.7 2 5.1 5.5 9.2 10.5 12.3-7.4-2.2-12.4-7.2-14.9-15.2-.6 4.3.6 9.7 3.6 16.1-4.7-5.3-7.6-11.9-8.5-19.8-.4 2.7-.4 5.3.1 7.8-1.8-3.2-2.9-7.1-3.2-11.8-.4-4.7-1.9-7.8-4.6-9.4-.1 4 .8 6.3 2.6 7.1-2.2-.8-3.7-2.3-4.5-4.5-.6-1.7-1.2-1.9-1.6-.6-.1 2.7.7 4.8 2.3 6.5-2.3-1-3.7-2.6-4.4-4.9-.3-.9-1-1.1-2.1-.6-.5.2-2.2 1.1-5.3 2.9-1.7 1-2.1 2.3-1.2 3.9.5.8 1.1 1.5 1.8 2.2-.6-.2-1.3-.4-2.1-.8.5 1.3.8 2.6 1 3.9-.1.5-.1.8-.1.9s.1 0 .2-.2c.1.3.1.5.2.7-.2.1-.4.2-.4.3-.1.3-.1.5 0 .3-1.5 10.2-2.9 16.8-4.4 19.6 1.5-14.7 2.1-23 1.8-24.8-.2-1.7-.8 1.9-1.9 10.7-1.1 9-1.6 15.7-1.5 20.3-1.2-9.4-1.6-16.8-1.2-22.2-3.1 11-3.7 21-1.8 29.8-2.7-4.4-3.8-11.6-3.4-21.5-.3 1.2-.6 2.6-.9 4.4-.5 23.8.4 41.4 2.7 52.8 1.7 8.8 3.7 16.3 5.9 22.6M63.8 62.5c1.9.2 3.6.3 5.1.5 1.7-.6 3.2-1.6 4.5-2.8-3.2 1.4-6.8 2.1-10.7 2.2.5.1.9.1 1.1.1zm5.8.6c7.4.9 13.8 2.7 19.2 5.5-.5-2-1.1-2.9-1.9-2.7-1.9.3-3.7-.1-5.5-1.2 1.9.5 3.6.1 5.3-1 .5-.8.1-1.1-1.3-.9-1.9.3-3.6-.2-5.2-1.4 1.5 1 3.4.8 5.8-.9-2.4-1.3-5.2-1.2-8.4.3-2.5 1.3-5.1 2.1-8 2.3zm17.5-8.3c1.2 1.9 2.6 4.7 4.3 8.6.8 1.9 1.4 3.7 1.8 5.7.6-3 1.1-5.9 1.5-8.9-2-1.5-3.9-2.6-5.7-3.3 2.1.1 4.1.4 5.9 1 .1-.6.2-1.1.2-1.3-1.7-.8-3.9-1.3-6.6-1.6-.4 0-.9-.1-1.4-.2zM90.6 89c.6.2 1.2.6 1.7 1 .2.2.5.3.8.5-.1-.3-.2-.7-.2-1 0-.8-.1-2.4-.4-4.9-.5 1.6-1.2 3.1-1.9 4.4zm5.4-7.1c.3-1.7.8-3.4 1.3-4.9-.9-.6-1.8-1.2-2.8-1.7-.5 2.2-.8 4.3-.7 6.2.7.1 1.5.2 2.2.4zm-.6-9.7c1 .6 2 1.2 2.9 1.9.4-2.3 1.1-4.6 2.2-6.9-.3-.7-.7-1.4-1.1-2.1-1.3 1.4-2.2 2.6-2.7 3.7-.6 1.2-1 2.3-1.3 3.4zm2.5 10.4c.2.1.3.2.3.2-.1-.3-.1-.6-.1-1-.1.3-.2.6-.2.8zm8.7-26c-2 .2-3.7.6-5.1 1.2.2.8.5 1.5.7 2.3l2.6-.7c.7-1.1 1.3-2.1 1.8-2.8zm-4.4 27.1c.1-.2.1-.5.2-.7-.2-.4-.4-.8-.6-1.1 0 .5.2 1.1.4 1.8zm.3-5.7c.2.2.3.3.4.5 0-.5 0-.9-.1-1.4l-.3.9zm.4-15.9c.1.2.1.4.1.5.1 0 .3-.3.7-1-.3.1-.6.3-.8.5zm.5 24.9c.2.3.3.6.4.9-.1-.5-.1-.9-.3-1.3 0 .1-.1.3-.1.4zm6.3-16.5c-1.1.4-2 1-2.8 1.7-.8.8-1.5 1.5-2.1 2.2.3 2.5.3 4.8 0 7 .6 1 1 2 1.4 3 2-4.6 4.5-7.9 7.3-9.9-.7-2.2-2-3.5-3.8-4zm9.9 12c-2.3-1.2-3.9-2.9-4.9-5.1-2.8 2.3-5.1 6.1-6.8 11.5.7.6 1 1.5 1 2.7 3.4-2.6 7.2-4.6 11.4-5.8 1-.3 2.1-.7 3.1-1-1.1-.9-2.4-1.6-3.8-2.3zm2.5-7.6c-2.3-.1-4.4.4-6.4 1.7 1 2.4 2.6 4.2 4.7 5.4 1.5.9 2.7 1.7 3.8 2.5 4.3-1.2 7.5-1.6 9.6-1.4-1.9-5.2-5.8-7.9-11.7-8.2zm2.6-21.3c-4.4-1.1-7.1-.9-7.9.5 1.3-.1 3.1.2 5.3.8l2.6-1.3zm3.4 1.1zm18.1 43c-.8.3-1.4.5-1.9.5.2.3.6.8 1 1.2 2.4 1.3 4.8 2.2 7.3 2.4-1.8-1.3-4-2.7-6.4-4.1zm11.5 9.3c-1.7.7-3.5.9-5.3.6 2.3 1.3 4.6 2.2 7.1 2.6-.3-.9-.9-2-1.8-3.2zm-2.4-2.7c-.8.2-1.5.4-2.2.5 1.2.4 2.3.6 3.5.7-.4-.4-.9-.8-1.3-1.2zM63.4 240.8c-9.3-9.4-14.6-14.1-15.9-14 .1-.6 0-1.2-.1-2 3.1-4.2 6.2-6.7 9.1-7.5 1.5-.3 3.5-.7 6.2-1 3.3-.3 5.3-.6 6.3-.8 4.7-.9 7.4-2.7 8.4-5.6.2-.5.3-1.1.5-1.8.2.2.5.3.7.4 1.2.6 2.3.7 3.3.3.5-.2 1.1-.7 1.7-1.4.2-.2.7-.6 1.5-1 .6-.3.8-.6.8-1-.4-1.8-.6-2.8-.6-3.1 0-.6.5-1.2 1.6-1.7 1.3-.5 2.1-1.1 2.4-1.7l2.8-4.5c.5-.6.8-1.2.9-1.8 0-.1 0-.4.1-1 .1-.3.1-.7.2-1 .2-.8.6-1.1 1.4-1.1.7-.1 1.6.3 2.6 1 .9.6 1.9.5 3.1-.3.9-.6 1.6-1.5 2.1-2.4.5-.8 1.3-1.7 2.5-2.7 1.3-1.1 2.1-1.5 2.6-1 2.5 2.4 3.7 3.6 3.6 3.5.3.3 1.3 1.5 2.8 3.5.2.2.9.5 2.2.7 1.3.3 2.1.7 2.4 1.1.9 1.4 1.5 3 1.9 4.7.1.7.8 1.1 2 1.2.9.1 1.7.1 2.3-.2.7-.3 1.7.3 2.9 1.8.1.2.3.6.6 1.1.3.7.5 1.2.6 1.4.6 1 1 1 1.4-.1.5-1.3 1.4-1.3 2.9-.1.6-.4 1.2-.6 1.7-.6.9 0 2.3-.8 4.3-2.3 1.8-1.3 3.3-2.6 4.4-3.8.2-.2.8-1 1.8-2.4.6-.8 1.4-1.5 2.4-2.1 1.8-1 2.8-1.6 3-1.7.8-.3 1.6-.3 2.4-.1.8.2 4.4 1.7 10.9 4.5 5.4 2.3 8.7 4 9.9 4.9.4.3 1.1.9 2 1.7.8.8 1.5 1.3 2.1 1.7 1.7 1 3.7 1.2 6.2.6 1.2-.3 2.2-.8 2.9-1.2l.6-.6c.3-.2.4-.4.4-.4.3-.3.8-.4 1.3-.3.7.1 1.8.4 3.4 1 5 1.8 8.9 3.8 11.6 6.1 6.1 5.1 9.1 7.5 9 7.3.8 1.5 1.2 2.6 1.2 3.6-.1 1.1-.7 1.7-1.9 1.8-.2.1-1.6.6-4 1.7-1.4 8.1-2.8 14.3-4.2 18.7H63.4z"/><path fill="#444" d="M152.7 241.2c-9.3-9.4-14.6-14.1-15.9-14 .1-.6 0-1.2-.1-2 3.1-4.2 6.2-6.7 9.1-7.5 1.5-.3 3.5-.7 6.2-1 3.3-.3 5.3-.6 6.3-.8 4.7-.9 7.4-2.7 8.4-5.6.2-.5.3-1.1.5-1.8.2.2.5.3.7.4 1.2.6 2.3.7 3.3.3.5-.2 1.1-.7 1.7-1.4.2-.2.7-.6 1.5-1 .6-.3.8-.6.8-1-.4-1.8-.6-2.8-.6-3.1 0-.6.5-1.2 1.6-1.7 1.3-.5 2.1-1.1 2.4-1.7l2.8-4.5c.5-.6.8-1.2.9-1.8 0-.1 0-.4.1-1 .1-.3.1-.7.2-1 .2-.8.6-1.1 1.4-1.1.7-.1 1.6.3 2.6 1 .9.6 1.9.5 3.1-.3.9-.6 1.6-1.5 2.1-2.4.5-.8 1.3-1.7 2.5-2.7 1.3-1.1 2.1-1.5 2.6-1 2.5 2.4 3.7 3.6 3.6 3.5.3.3 1.3 1.5 2.8 3.5.2.2.9.5 2.2.7 1.3.3 2.1.7 2.4 1.1.9 1.4 1.5 3 1.9 4.7.1.7.8 1.1 2 1.2.9.1 1.7.1 2.3-.2.7-.3 1.7.3 2.9 1.8.1.2.3.6.6 1.1.3.7.5 1.2.6 1.4.6 1 1 1 1.4-.1.5-1.3 1.4-1.3 2.9-.1.6-.4 1.2-.6 1.7-.6.9 0 2.3-.8 4.3-2.3 1.8-1.3 3.3-2.6 4.4-3.8.2-.2.8-1 1.8-2.4.6-.8 1.4-1.5 2.4-2.1 1.8-1 2.8-1.6 3-1.7.8-.3 1.6-.3 2.4-.1.8.2 4.4 1.7 10.9 4.5 5.4 2.3 8.7 4 9.9 4.9.4.3 1.1.9 2 1.7.8.8 1.5 1.3 2.1 1.7 1.7 1 3.7 1.2 6.2.6 1.2-.3 2.2-.8 2.9-1.2l.6-.6c.3-.2.4-.4.4-.4.3-.3.8-.4 1.3-.3.7.1 1.8.4 3.4 1 5 1.8 8.9 3.8 11.6 6.1 6.1 5.1 9.1 7.5 9 7.3.8 1.5 1.2 2.6 1.2 3.6-.1 1.1-.7 1.7-1.9 1.8-.2.1-1.6.6-4 1.7-1.4 8.1-2.8 14.3-4.2 18.7H152.7zm88.1-60.5l-31.7 6.3-48.2-105.6 25.3-5.4 33.2 79.3-2.6-84.3 29.6-4.8-5.6 114.5zm9.6-76.8l1-.3 3.1 32h.4l3.1 32 .4-.1 4.6 43.2-3.6.6-4.3-39.8-66.6 11.3 4.3 39.5-3.6.6-4.5-43h.2l-3.1-32h.2l-3.1-32h.1l-2.9-30.3 71.3-12.1 3 30.4zm-67.9 11.5l64.4-11-2.6-26.9-64.4 11 2.6 26.9zm3 32l65.5-11.2-2.7-28.5-65.5 11.1 2.7 28.6zm3 32l66-11.2-2.7-28.5-66 11.2 2.7 28.5z"/><path fill="#444" d="M238.3 241.2c-7.2-1.1-13.3-2.7-18.1-4.7-2.7-1.1-4.3-6.3-4.7-15.7-.5-.9.4-1.4 2.7-1.6 2.2-.1 3.7-.4 4.7-.8.8-.3 1.6-1 2.4-1.9 2.9-3.3 5.9-6 9-8 4.7-3.1 7.5-4.5 8.5-4.4.1 0 .7.3 1.7.8.9.5 1.9.8 3.2.9 2.5.2 4.5-.2 6.1-1.2 2-1.2 3.3-1.9 4.1-2 1.4-.2 2.7-1.2 3.9-3 1.3-1.8 2.3-2.8 3.1-3 2.7-.5 5.4-1.6 8.1-3.2 3.6-2.2 6.5-3.2 8.6-3.2.9 0 1.9.7 3 2.1 1.3 1.7 2.5 2.8 3.5 3.3 2.4 1.2 3.8 1.9 4 2.2 1 .8 1.2 2.1.8 3.7-.5 1.8-.1 3.5 1.1 5.1 1.2 1.4 2.8 2.4 4.8 3 1.1.3 3.6 0 7.5-1 3.5-.8 5.9-.8 7.1-.1 1-1.2 1.6-1.9 1.7-2.4.5-1.7 1.6-3.4 3.5-5l4.4-3.6c.4-.2 1.4-.3 3-.2 1.5.1 2.5 0 2.9-.3.2-.2.7-.1 1.4.3.8.3 1.3.8 1.7 1.3.3.5.5.9.3 1.2-.2.6-.3 1.2-.3 1.6 0 1.6.8 3 2.3 4.4l1.4-.9c.6.2 1 .8 1.2 1.7.1.5 0 .8-.2 1.1.1.1 1.3.6 3.6 1.6 2 .9 3.1 1.7 3.1 2.4 0 .9.8 2 2.4 3.3.5.4 1.1.9 2 1.6.9.6 1.4 1 1.7 1.2.2.2.7.6 1.5 1.1.6.5 1.2.8 1.6 1.1 3 .5 4.9 5.8 5.7 16 .8 1.9 1 3.5.6 4.9H238.3zM292 70.9l1.8 88.7 48-1.3 1.7 24.6-78.2.5-1-112.5H292zm44.4 43.2h1l-.9 30.7h.4l-.9 30.7h.4l-.8 41.6-3.1-.1.6-38.3-59-1.3-.6 38-3.1-.1.7-41.3h.2l.8-30.7h.1l.9-30.7h.1l.8-29.1 63.3 1.5-.9 29.1zm-62 60l58.5 1.3.8-27.4-58.6-1.4-.7 27.5zm.9-30.7l58.2 1.3.7-27.4L276 116l-.7 27.4zm.8-30.7l57.2 1.3.7-25.9-57.2-1.3-.7 25.9z"/><path fill="#444" d="M341.7 241.2c-1.8-3.3-4.2-8-7.2-14.1-3.7-1-5.7-1.7-6-2-.3-.3-.5-.7-.4-1.2.1-.4.3-1.2.7-2.4 1.3-3.7 3.3-7.2 5.8-10.5 2.9-3.9 5.5-6.8 7.7-8.7.6-.5 1.7-.8 3.4-.8s2.9-.2 3.4-.6c1.2-.9 4.3-.7 9.4.5.1-.3.2-.6.4-1 .3-.6.5-1.1.7-1.6.2-.7.8-1.5 1.6-2.4.7-.8 1.1-1.5 1.2-2 .3-1.7.8-2.4 1.7-2.3.8.2 2.2-.3 4.3-1.4.8-.4 1.3-.7 1.7-.8.6-.1 1 .1 1.2.7.2.5 1 1.1 2.4 2 1.7.9 2.6 1.5 2.7 1.6l.7.7c.3.5.6.8.9 1 .8.7 1.5.8 2.1.3.9-.8 1.5-1.1 1.7-1.1.5 0 1.6.6 3.1 1.8 1.5 1.2 2.4 1.8 2.5 1.7.1 0 .2-.1.3-.3.2-.3.3-.6.5-.8.4-.5.8-.6 1.3-.3.1.1.4.5 1.1 1.4.3.4.7.7 1.1.8.6.2 1.1.3 1.3.5.1.1.3.2.4.4 2 .1 3.9-.1 5.5-.7 1.7-.6 2.8-1.5 3.3-2.6.5-1.3 1.2-2.4 1.9-3.2.9-.9 1.9-1.4 3.1-1.4 1.2.1 2.8-.1 4.9-.3 2.1-.3 3.4-.7 4-1 .5-.3 2.3-.1 5.5.7 3 .7 4.8 1.3 5.6 1.7 1.9 1.2 3.8 2 5.7 2.5 1.4.3 2.8.1 4.4-.6 1.2-.6 2.2-1.4 3.1-2.5 1.9-2.4 2.9-3.7 3.1-3.9 1.5-1.5 2.6-1.8 3.3-.9 1.5 1.9 2.7 3.2 3.7 4.1 1.7 1.5 3.1 2 4.4 1.5 1.4-.6 2.4-.9 3.1-.7.6.1 1.4.8 2.3 2 2.1 2.8 4.2 4.4 6.5 4.7 1.3.2 2.2.3 2.5.5.6.3 1.1 1.2 1.6 2.4.4 1 .9 1.9 1.6 2.7.9 1 1.5 1.8 1.7 2.2 2.4 3.7.4 5.6-6 5.8 2.4 13.1 1.5 22.4-2.5 27.8h-124zM429 94.5l4.5 71.7-24.8 20.5-53.8 1.8-5.7-111.7 51.3-4.3 28.5 22zm-6.3 9l1-.1.7 28.6h.3l.8 28.6h.3l1.4 38.6-3.2.3-1.3-35.6-59.8 5.8 1.3 35.4-3.2.3-1.4-38.5h.2l-.7-28.6.1-.1-.7-28.6h.1l-.7-27.1 64.2-6.3.6 27.3zm-61 6l58-5.7-.7-24.1-58 5.7.7 24.1zm.7 28.6l58.9-5.8-.7-25.5-58.9 5.8.7 25.5zm.6 28.6l59.4-5.8-.6-25.5-59.4 5.8.6 25.5zm17.2-4.2l16.1-.6 7.3-7.7-2.7-48.8-8.7-4.9-16.3.5 4.3 61.5z"/><path fill="#444" d="M437.5 241.2c-1.9-.2-4-.5-6.3-.7-6.2-16.3-10.1-24.8-11.5-25.5-2.1-1-1-2.4 3.5-4.1 4.7-1.8 10.9-5.1 18.7-9.9 7.2-4.5 11.3-6.9 12.4-7.2 1.1-.3 5.3 1 12.5 4 3.1-4 5.5-5.8 7.2-5.5 2.3.5 3.7.3 4.4-.6 2-3 5-3.3 8.8-.9 4.9-3.7 8.7-4.9 11.3-3.6 2.4 1.1 6 3.3 11 6.5 5.8 3.7 9.2 5.9 10.2 6.5 1 .6 2.6.7 4.7.3.3-.1 1.2-.3 2.9-.7 1.2-.3 2.3-.5 3.1-.7 2.6-.3 4.9-.2 6.9.5 2.6 1 5.1 3 7.3 5.9 2 2.7 5 5.2 9.1 7.5 3.9 2.2 7.3 3.5 10.2 3.7 1.3.2 1.7.8 1 1.8-.6 1-1.9 2.3-4 3.7-3.8 2.6-7.8 8.8-11.9 18.7H437.5zm56.9-178.1l21.4 19.4-.5 29.1-9.6 5.5 10.2 7.1-.6 33-19.2 19.8H443l2.3-114.3 49.1.4zm15.3 29.7l-1 26.2h.1l-1 27.6h.1l-1 27.6h.1l-2 44.2-2.7-.1 1.9-41.2-50.7-2.3-1.9 41.4-2.7-.1 2.1-44.5h.3l1-27.6h.3l1-27.6.9.1 1-26.2 54.2 2.5zm-5.5 81.2l.9-24.6-50.2-2.3-1 24.7 50.3 2.2zm1-27.5l.9-24.7-49.9-2.2-1 24.6 50 2.3zm1-27.7l.9-23.2-49.1-2.2-.9 23.2 49.1 2.2zm-25.6 36l7.2-6.7.4-12.2-6.6-6.2h-14.3l-1 24.7 14.3.4zM469 108.3l13.6-.4 6.4-6.4v-9.8l-6.3-6.5h-14l.3 23.1z"/><path fill="#444" d="M547.8 241.2c-10.9-3.1-17.9-9.7-21.1-19.8-8-.1-10.6-2-7.6-5.8.3-.4 1-1.1 2.3-2.2.8-.8 1.5-1.7 1.9-2.7.6-1.3 1.2-2.1 2-2.4.4-.2 1.5-.3 3.2-.5 2.7-.3 5.4-1.9 8-4.7 1.1-1.2 2.1-1.9 2.9-2 .8-.2 2.1.1 3.8.7 1.5.5 3.3 0 5.5-1.5 1.2-.9 2.7-2.2 4.5-4.1.9-.9 2.3-.6 4.2.9.2.2 1.5 1.5 3.8 3.9 1 1.1 2.3 1.9 3.8 2.5 1.9.8 3.7 1 5.5.6 2.3-.5 4.7-1.4 7.2-2.5.9-.5 3.2-1 6.9-1.7 4-.8 6.3-1 7-.7.7.3 2.4.7 5.1 1 2.6.3 4.6.4 6.1.3 1.3 0 2.6.5 3.7 1.4 1 .8 1.8 1.9 2.4 3.2.6 1.2 1.9 2 4.1 2.6 2.1.6 4.4.8 7.1.7.2-.2.3-.4.5-.4.3-.2.8-.3 1.7-.5.5-.1 1-.4 1.4-.8.8-.9 1.3-1.3 1.4-1.4.5-.3 1.1-.3 1.7.3.2.2.4.5.6.8.1.2.2.3.3.3.2.1 1.3-.5 3.2-1.7 1.9-1.2 3.2-1.8 3.9-1.8.2 0 .8.4 2 1.1.8.5 1.7.3 2.6-.3.3-.2.7-.5 1.1-1 .4-.4.7-.6.9-.7.1-.1 1.2-.6 3.4-1.6 1.8-.9 2.8-1.5 3.1-2 .2-.6.8-.8 1.6-.7.4.1 1.1.4 2.1.8 2.6 1.1 4.3 1.6 5.3 1.4 1-.2 1.8.6 2.2 2.3.1.5.6 1.2 1.5 2 1 .9 1.6 1.7 1.9 2.4.2.5.6 1 1 1.6.2.4.4.8.4 1 6.5-1.2 10.4-1.4 11.9-.5.7.4 2.1.6 4.3.6s3.6.3 4.3.8c2.8 1.9 6 4.8 9.7 8.7 3.2 3.3 5.6 6.8 7.2 10.5.5 1.2.8 1.9 1 2.4.1.5-.1.9-.6 1.2-.4.3-2.9 1-7.5 2-1.3 2.2-2.6 4.2-3.7 6.1H547.8zm97.9-160.8l.3 34.6-43.2 39.2 42.2.4.7 28.2h-78.8l.3-27.2 54.8-51.8.2-16.3-4.4-4.9-21.2.6-4.8 5.3-.3 13.3-25.4.3v-20l21.3-23.5 40.8-.2 17.5 22zm-9.7 26.2l1 .1-1.8 36.8h.3l-1.7 36.7h.3l-2.1 49.7-3 .1 1.9-45.8-55.4 1-1.8 45.5-3 .3 2-49h.2l1.7-37.5h.2l1.7-37.4h.1l1.7-34.5 59.4-1-1.7 35zm-60.2 74.8l54.9-1 1.6-32.8-54.8 1-1.7 32.8zm1.9-36.8l54.5-1 1.6-32.8-54.5 1-1.6 32.8zm1.9-36.8l53.6-1 1.5-31-53.6 1-1.5 31z"/><path fill="#444" d="M620.7 241.2c-.4-1.6-.7-3.4-.8-5.4-1.3-.1-1.7-.6-1-1.4.6-.8 1.9-1.8 4-2.9 5.1-2.6 10.5-10.3 16.3-23.2 2.4-.3 5.1-1.1 8.1-2.2 4-1.5 6.6-2.4 7.8-2.7 7-1.9 15.8-1.9 26.4-.1 5.5.9 11.5 1.2 18.1.9 1.9-.1 4.4-.3 7.7-.6 3.1-.3 5.4-.5 6.7-.6 4.6-.2 7.9.3 10 1.6 2.6 1.5 4.2 4.4 4.9 8.7.2 1.2 3.7.7 10.6-1.5 2.3.3 7.4.8 15.4 1.5 4.5 15.4 7.5 23.4 9 23.9 1.2.4 1.4 1.7.6 4H620.7zM714.3 67l21.9 23.1-.9 81.1-21.2 17.8-39.8-1-21.2-20.4-.8-78.6 25.2-22.5 36.8.5zm9.5 32.7l-1 24.4h.8l-1.1 25.7h.3l-1.1 25.7h.3l-1.1 34.8-2.7-.1 1.1-32-49.4-2-1.1 31.8-2.6-.2 1.2-34.5h.1l1.1-25.7h.1l1.1-25.7h.1l1-24.3 52.9 2.1zm-4.8 75.8l1-23-49-1.9-1 22.9 49 2zm.8-25.7l1-23-48.7-1.9-1 22.9 48.7 2zm.4-25.8l1-21.6-48-1.9-1 21.7 48 1.8zm-29 37.7l10.4-.1 6.3-8.5-.8-50.5-6.2-8.3-10.1-1-7.7 8.5 1 51.4 7.1 8.5z"/><path fill="#444" d="M684.2 241.2c-3.7-7.1-6.2-10.9-7.3-11.3-2.6-1-1.2-2.4 4.4-4.1 5.8-1.8 13.5-5.1 23-9.9 8.9-4.5 14-6.9 15.3-7.2 1.4-.3 6.6 1 15.5 4 3.8-4 6.7-5.8 8.7-5.5 2.8.5 4.6.3 5.4-.6 2.6-3 6.2-3.3 11-.9 6-3.7 10.6-4.9 14-3.6 2.9 1.1 7.4 3.3 13.5 6.5 7.1 3.7 11.3 5.9 12.6 6.5 1.3.6 3.2.7 5.8.3.4-.1 1.6-.3 3.6-.7 1.5-.3 2.8-.5 3.8-.7 3.2-.3 6-.2 8.5.5 3.3 1 6.3 3 9.1 5.9 2.5 2.7 6.2 5.2 11.2 7.5 4.8 2.2 9 3.5 12.6 3.7 1.7.2 2.1.8 1.3 1.8s-2.4 2.3-5 3.7c-1.6.9-3.2 2.2-4.9 3.9H684.2zM787.1 56l-3.1 89.7 15.3.6L797 173l-49.3-1.2v-27.3h11.4l1.3-59.4-8.9-1.2V54.7l35.6 1.3zm13.3 46.4h.7l-1.5 37h.3l-1.5 36.9h.3l-1.7 49.9-2.4.1 1.5-46-43.9 1L751 227l-2.4.3 1.6-49.2h.1l1.5-37.7h.1l1.4-37.6h.1l1.3-34.6 47-1-1.3 35.2zm-47.7 75l43.5-1 1.2-33-43.4 1-1.3 33zm1.4-36.9l43.2-1 1.2-33-43.1 1-1.3 33zm1.5-36.8l42.4-1 1.2-31.1-42.5 1-1.1 31.1z"/><path fill="#444" d="M787.7 241.2c.1-.1.3-.1.4-.1s1.5-.5 3.8-1.6c1.2-16.9 3.2-25.8 5.9-26.6 9.5-2.7 20.4-3.3 32.7-1.7 8.9 1.1 18.6 1.8 29 2.1 5.5.2 9.7 1 12.5 2.5h.1l.1.1c6.5-1.2 17.4-1.7 32.7-1.7 6.9 0 14.2-.3 22.1-1 15.4 14.5 23.9 21.7 25.4 21.6.1.6.2 1.2.3 2-1.2 1.8-2.4 3.3-3.6 4.4H787.7zM890.4 81.7l3.2 68.5-19 19.6-51.4.1-2.4-24.7 43.7-.6-1-17.4-32.3-.1-19.2-19.6-2.1-25.4 17.9-23.6 42.9-.7 19.7 23.9zm-9.7 36.4h.9l1.6 33.6h.3l1.6 33.6h.3l2.5 45.3h-3l-2.4-41.7-55.2 1 2.3 41.4-3 .3-2.4-44.7h.2l-1.7-34.1h.2l-1.7-34.2h.1L820 87.2l59.3-.9 1.4 31.8zm-56.4.2l53.5-.9-1.3-28.3-53.5 1 1.3 28.2zm1.6 33.6l54.4-1-1.4-29.9-54.4 1 1.4 29.9zm1.5 34.3l54.8-1-1.5-29.9-54.8 1 1.5 29.9zm14.3-82.7l16.8-.6 5.1-6.2-.6-9.2-5.9-5.8-16.2.2-5.1 6.2L837 98l4.7 5.5z"/></svg>