<svg xmlns="http://www.w3.org/2000/svg" width="11" height="12"><g fill="#3A84DF" opacity=".8"><path d="M9 5.9c0 .1-.2.5-.6 1.1-.4.6-.6 1-.8 1h-.2c-.2.1-.4 0-.4-.2l-.2-.2s-.1.1-.3.2c-.3.1-.5.2-.7.2-.5 0-1-.2-1.3-.6-.3-.3-.4-.8-.4-1.3 0-.6.2-1.1.5-1.4.3-.4.8-.6 1.4-.6.3 0 .5.1.8.2s.5.2.5.2c.1 0 .2-.1.2-.2 0-.3-.2-.6-.6-.9-.4-.1-.7-.2-1.1-.2-.8 0-1.4.2-1.9.8-.5.6-.7 1.3-.7 2 0 .8.2 1.4.7 2 .5.6 1.1.8 1.9.8.1 0 .2 0 .2.1v1c0 .1-.1.1-.2.1-1.1 0-2-.4-2.8-1.2C2.4 8 2 7.1 2 6c0-1 .4-2 1.1-2.8C3.8 2.4 4.7 2 5.8 2s1.9.4 2.5 1.2c.4.7.7 1.6.7 2.7zM7.2 6c0-.2-.1-.4-.2-.5-.2-.1-.3-.2-.6-.2-.2 0-.4.1-.5.2-.1.2-.2.3-.2.6 0 .2.1.4.2.5.1.1.2.2.4.2.3 0 .5-.1.6-.2.2-.1.3-.3.3-.6z"/></g></svg>