<svg version="1.0" xmlns="http://www.w3.org/2000/svg" viewBox="0 0 1000 1000">
<g transform="matrix(1 0 0 -1 0 1536)">
	<path fill="#777" d="M826.7,846.5c0,4.7-0.4,8.1-1.3,10.2c-1.3,3.4-9.5,9.7-24.6,18.8s-33.9,19.7-56.5,31.6l-33.8,18.5c-2.1,1.3-6.2,4-12.1,8.3
		c-6,4.3-11.3,7.4-15.9,9.6c-4.7,2.1-9.1,3.2-13.4,3.2c-7.7,0-17.7-6.9-30-20.7s-24.5-27.8-36.4-41.8s-21.3-21.1-28.1-21.1
		c-3,0-6.5,0.7-10.5,2.2s-7.3,2.9-9.9,4.1c-2.6,1.3-6.2,3.3-10.8,6.1c-4.7,2.8-7.7,4.6-8.9,5.4c-42.1,23.4-78.4,50.3-108.8,80.7
		s-57.3,66.7-80.7,108.8c-0.9,1.3-2.7,4.3-5.4,8.9c-2.8,4.7-4.8,8.3-6.1,10.8c-1.3,2.6-2.7,5.8-4.1,9.9c-1.5,4-2.2,7.5-2.2,10.5
		c0,5.5,4.4,12.7,13.1,21.4c8.7,8.7,18.3,16.9,28.7,24.6c10.4,7.7,20,16.1,28.7,25.2s13.1,16.9,13.1,23.3c0,4.3-1.1,8.7-3.2,13.4
		c-2.1,4.7-5.3,10-9.6,16c-4.3,6-7,10-8.3,12.1c-1.3,2.6-4.5,8.6-9.6,18.2s-10.4,19.2-16,29c-5.5,9.8-11.2,19.9-16.9,30.3
		c-5.7,10.4-11.1,19-16,25.8s-8.4,10.6-10.5,11.5s-5.5,1.3-10.2,1.3c-20.4,0-41.9-4.7-64.4-14c-19.6-8.9-36.6-29-51-60.3
		c-14.5-31.3-21.7-59-21.7-83.3c0-6.8,0.5-14,1.6-21.7s2.1-14.1,3.2-19.5c1.1-5.3,3-12.3,5.7-21.1c2.8-8.7,4.9-15,6.4-18.8
		s4.1-10.8,8-21.1c3.8-10.2,6.2-16.6,7-19.1c25.5-69.8,71.6-137.9,138.1-204.5c66.6-66.6,134.7-112.6,204.5-138.1
		c2.6-0.9,8.9-3.2,19.1-7c10.2-3.8,17.2-6.5,21.1-8c3.8-1.5,10.1-3.6,18.8-6.4c8.7-2.8,15.7-4.7,21.1-5.7c5.3-1.1,11.8-2.1,19.5-3.2
		c7.7-1.1,14.9-1.6,21.7-1.6c24.2,0,52,7.2,83.3,21.7s51.4,31.5,60.3,51C822,804.6,826.7,826.1,826.7,846.5z M990,1342.3V729.8
		c0-50.6-18-93.9-53.9-129.8c-36-36-79.2-54-129.8-54H193.8c-50.6,0-93.9,18-129.8,53.9c-36,36-54,79.2-54,129.9v612.5
		c0,50.6,18,93.9,53.9,129.8s79.2,53.9,129.8,53.9h612.5c50.6,0,93.9-18,129.8-53.9C972,1436.1,990,1392.9,990,1342.3z"/>
</g>
</svg>